<?xml version="1.0" encoding="UTF-8" standalone="no"?>
<!DOCTYPE svg PUBLIC "-//W3C//DTD SVG 1.1//EN"
 "http://www.w3.org/Graphics/SVG/1.1/DTD/svg11.dtd">
<!-- Generated by graphviz version 2.40.1 (20161225.0304)
 -->
<!-- Title: dependency&#45;cruiser output Pages: 1 -->
<svg width="739pt" height="1025pt"
 viewBox="0.00 0.00 738.75 1025.00" xmlns="http://www.w3.org/2000/svg" xmlns:xlink="http://www.w3.org/1999/xlink">
<g id="graph0" class="graph" transform="scale(1 1) rotate(0) translate(4 1021)">
<title>dependency&#45;cruiser output</title>
<polygon fill="#ffffff" stroke="transparent" points="-4,4 -4,-1021 734.7524,-1021 734.7524,4 -4,4"/>
<g id="clust1" class="cluster">
<title>cluster_src</title>
<path fill="#ffffff" stroke="#000000" stroke-width="2" d="M20,-8C20,-8 710.7524,-8 710.7524,-8 716.7524,-8 722.7524,-14 722.7524,-20 722.7524,-20 722.7524,-997 722.7524,-997 722.7524,-1003 716.7524,-1009 710.7524,-1009 710.7524,-1009 20,-1009 20,-1009 14,-1009 8,-1003 8,-997 8,-997 8,-20 8,-20 8,-14 14,-8 20,-8"/>
<text text-anchor="middle" x="365.3762" y="-997.8" font-family="Helvetica,sans-Serif" font-weight="bold" font-size="9.00" fill="#000000">src</text>
</g>
<g id="clust2" class="cluster">
<title>cluster_src/app</title>
<path fill="#ffffff" stroke="#000000" stroke-width="2" d="M138,-16C138,-16 702.7524,-16 702.7524,-16 708.7524,-16 714.7524,-22 714.7524,-28 714.7524,-28 714.7524,-884 714.7524,-884 714.7524,-890 708.7524,-896 702.7524,-896 702.7524,-896 138,-896 138,-896 132,-896 126,-890 126,-884 126,-884 126,-28 126,-28 126,-22 132,-16 138,-16"/>
<text text-anchor="middle" x="420.3762" y="-884.8" font-family="Helvetica,sans-Serif" font-weight="bold" font-size="9.00" fill="#000000">app</text>
</g>
<g id="clust3" class="cluster">
<title>cluster_src/app/buy</title>
<path fill="#ffffff" stroke="#000000" stroke-width="2" d="M315.158,-761C315.158,-761 554.3621,-761 554.3621,-761 560.3621,-761 566.3621,-767 566.3621,-773 566.3621,-773 566.3621,-800 566.3621,-800 566.3621,-806 560.3621,-812 554.3621,-812 554.3621,-812 315.158,-812 315.158,-812 309.158,-812 303.158,-806 303.158,-800 303.158,-800 303.158,-773 303.158,-773 303.158,-767 309.158,-761 315.158,-761"/>
<text text-anchor="middle" x="434.76" y="-800.8" font-family="Helvetica,sans-Serif" font-weight="bold" font-size="9.00" fill="#000000">buy</text>
</g>
<g id="clust4" class="cluster">
<title>cluster_src/app/carousal</title>
<path fill="#ffffff" stroke="#000000" stroke-width="2" d="M455.1426,-820C455.1426,-820 694.7524,-820 694.7524,-820 700.7524,-820 706.7524,-826 706.7524,-832 706.7524,-832 706.7524,-859 706.7524,-859 706.7524,-865 700.7524,-871 694.7524,-871 694.7524,-871 455.1426,-871 455.1426,-871 449.1426,-871 443.1426,-865 443.1426,-859 443.1426,-859 443.1426,-832 443.1426,-832 443.1426,-826 449.1426,-820 455.1426,-820"/>
<text text-anchor="middle" x="574.9475" y="-859.8" font-family="Helvetica,sans-Serif" font-weight="bold" font-size="9.00" fill="#000000">carousal</text>
</g>
<g id="clust5" class="cluster">
<title>cluster_src/app/contactus</title>
<path fill="#ffffff" stroke="#000000" stroke-width="2" d="M302.8203,-525C302.8203,-525 566.6997,-525 566.6997,-525 572.6997,-525 578.6997,-531 578.6997,-537 578.6997,-537 578.6997,-564 578.6997,-564 578.6997,-570 572.6997,-576 566.6997,-576 566.6997,-576 302.8203,-576 302.8203,-576 296.8203,-576 290.8203,-570 290.8203,-564 290.8203,-564 290.8203,-537 290.8203,-537 290.8203,-531 296.8203,-525 302.8203,-525"/>
<text text-anchor="middle" x="434.76" y="-564.8" font-family="Helvetica,sans-Serif" font-weight="bold" font-size="9.00" fill="#000000">contactus</text>
</g>
<g id="clust6" class="cluster">
<title>cluster_src/app/entry</title>
<path fill="#ffffff" stroke="#000000" stroke-width="2" d="M312.4092,-643C312.4092,-643 557.1108,-643 557.1108,-643 563.1108,-643 569.1108,-649 569.1108,-655 569.1108,-655 569.1108,-682 569.1108,-682 569.1108,-688 563.1108,-694 557.1108,-694 557.1108,-694 312.4092,-694 312.4092,-694 306.4092,-694 300.4092,-688 300.4092,-682 300.4092,-682 300.4092,-655 300.4092,-655 300.4092,-649 306.4092,-643 312.4092,-643"/>
<text text-anchor="middle" x="434.76" y="-682.8" font-family="Helvetica,sans-Serif" font-weight="bold" font-size="9.00" fill="#000000">entry</text>
</g>
<g id="clust7" class="cluster">
<title>cluster_src/app/footer</title>
<path fill="#ffffff" stroke="#000000" stroke-width="2" d="M152.2493,-381C152.2493,-381 408.6294,-381 408.6294,-381 414.6294,-381 420.6294,-387 420.6294,-393 420.6294,-393 420.6294,-420 420.6294,-420 420.6294,-426 414.6294,-432 408.6294,-432 408.6294,-432 152.2493,-432 152.2493,-432 146.2493,-432 140.2493,-426 140.2493,-420 140.2493,-420 140.2493,-393 140.2493,-393 140.2493,-387 146.2493,-381 152.2493,-381"/>
<text text-anchor="middle" x="280.4393" y="-420.8" font-family="Helvetica,sans-Serif" font-weight="bold" font-size="9.00" fill="#000000">footer</text>
</g>
<g id="clust8" class="cluster">
<title>cluster_src/app/home</title>
<path fill="#ffffff" stroke="#000000" stroke-width="2" d="M310.825,-466C310.825,-466 558.6951,-466 558.6951,-466 564.6951,-466 570.6951,-472 570.6951,-478 570.6951,-478 570.6951,-505 570.6951,-505 570.6951,-511 564.6951,-517 558.6951,-517 558.6951,-517 310.825,-517 310.825,-517 304.825,-517 298.825,-511 298.825,-505 298.825,-505 298.825,-478 298.825,-478 298.825,-472 304.825,-466 310.825,-466"/>
<text text-anchor="middle" x="434.76" y="-505.8" font-family="Helvetica,sans-Serif" font-weight="bold" font-size="9.00" fill="#000000">home</text>
</g>
<g id="clust9" class="cluster">
<title>cluster_src/app/housedetail</title>
<path fill="#ffffff" stroke="#000000" stroke-width="2" d="M299.063,-584C299.063,-584 570.457,-584 570.457,-584 576.457,-584 582.457,-590 582.457,-596 582.457,-596 582.457,-623 582.457,-623 582.457,-629 576.457,-635 570.457,-635 570.457,-635 299.063,-635 299.063,-635 293.063,-635 287.063,-629 287.063,-623 287.063,-623 287.063,-596 287.063,-596 287.063,-590 293.063,-584 299.063,-584"/>
<text text-anchor="middle" x="434.76" y="-623.8" font-family="Helvetica,sans-Serif" font-weight="bold" font-size="9.00" fill="#000000">housedetail</text>
</g>
<g id="clust10" class="cluster">
<title>cluster_src/app/userprofile</title>
<path fill="#ffffff" stroke="#000000" stroke-width="2" d="M301.0713,-702C301.0713,-702 568.4487,-702 568.4487,-702 574.4487,-702 580.4487,-708 580.4487,-714 580.4487,-714 580.4487,-741 580.4487,-741 580.4487,-747 574.4487,-753 568.4487,-753 568.4487,-753 301.0713,-753 301.0713,-753 295.0713,-753 289.0713,-747 289.0713,-741 289.0713,-741 289.0713,-714 289.0713,-714 289.0713,-708 295.0713,-702 301.0713,-702"/>
<text text-anchor="middle" x="434.76" y="-741.8" font-family="Helvetica,sans-Serif" font-weight="bold" font-size="9.00" fill="#000000">userprofile</text>
</g>
<g id="clust11" class="cluster">
<title>cluster_src/assets</title>
<path fill="#ffffff" stroke="#000000" stroke-width="2" d="M28,-667C28,-667 106,-667 106,-667 112,-667 118,-673 118,-679 118,-679 118,-857 118,-857 118,-863 112,-869 106,-869 106,-869 28,-869 28,-869 22,-869 16,-863 16,-857 16,-857 16,-679 16,-679 16,-673 22,-667 28,-667"/>
<text text-anchor="middle" x="67" y="-857.8" font-family="Helvetica,sans-Serif" font-weight="bold" font-size="9.00" fill="#000000">assets</text>
</g>
<g id="clust12" class="cluster">
<title>cluster_src/assets/sal.js</title>
<path fill="#ffffff" stroke="#000000" stroke-width="2" d="M36,-734C36,-734 98,-734 98,-734 104,-734 110,-740 110,-746 110,-746 110,-832 110,-832 110,-838 104,-844 98,-844 98,-844 36,-844 36,-844 30,-844 24,-838 24,-832 24,-832 24,-746 24,-746 24,-740 30,-734 36,-734"/>
<text text-anchor="middle" x="67" y="-832.8" font-family="Helvetica,sans-Serif" font-weight="bold" font-size="9.00" fill="#000000">sal.js</text>
</g>
<g id="clust13" class="cluster">
<title>cluster_src/assets/sal.js/dist</title>
<path fill="#ffffff" stroke="#000000" stroke-width="2" d="M44,-768C44,-768 90,-768 90,-768 96,-768 102,-774 102,-780 102,-780 102,-807 102,-807 102,-813 96,-819 90,-819 90,-819 44,-819 44,-819 38,-819 32,-813 32,-807 32,-807 32,-780 32,-780 32,-774 38,-768 44,-768"/>
<text text-anchor="middle" x="67" y="-807.8" font-family="Helvetica,sans-Serif" font-weight="bold" font-size="9.00" fill="#000000">dist</text>
</g>
<g id="clust14" class="cluster">
<title>cluster_src/assets/scripts</title>
<path fill="#ffffff" stroke="#000000" stroke-width="2" d="M41.7502,-675C41.7502,-675 92.2498,-675 92.2498,-675 98.2498,-675 104.2498,-681 104.2498,-687 104.2498,-687 104.2498,-714 104.2498,-714 104.2498,-720 98.2498,-726 92.2498,-726 92.2498,-726 41.7502,-726 41.7502,-726 35.7502,-726 29.7502,-720 29.7502,-714 29.7502,-714 29.7502,-687 29.7502,-687 29.7502,-681 35.7502,-675 41.7502,-675"/>
<text text-anchor="middle" x="67" y="-714.8" font-family="Helvetica,sans-Serif" font-weight="bold" font-size="9.00" fill="#000000">scripts</text>
</g>
<g id="clust15" class="cluster">
<title>cluster_src/environments</title>
<path fill="#ffffff" stroke="#000000" stroke-width="2" d="M162.761,-904C162.761,-904 250.302,-904 250.302,-904 256.302,-904 262.302,-910 262.302,-916 262.302,-916 262.302,-972 262.302,-972 262.302,-978 256.302,-984 250.302,-984 250.302,-984 162.761,-984 162.761,-984 156.761,-984 150.761,-978 150.761,-972 150.761,-972 150.761,-916 150.761,-916 150.761,-910 156.761,-904 162.761,-904"/>
<text text-anchor="middle" x="206.5315" y="-972.8" font-family="Helvetica,sans-Serif" font-weight="bold" font-size="9.00" fill="#000000">environments</text>
</g>
<!-- src/app/app&#45;routing.module.ts -->
<g id="node1" class="node">
<title>src/app/app&#45;routing.module.ts</title>
<g id="a_node1"><a xlink:href="src/app/app-routing.module.ts" xlink:title="app&#45;routing.module.ts">
<path fill="#ddfeff" stroke="#000000" d="M410.9874,-316.5C410.9874,-316.5 319.2182,-316.5 319.2182,-316.5 316.3848,-316.5 313.5515,-313.6667 313.5515,-310.8333 313.5515,-310.8333 313.5515,-305.1667 313.5515,-305.1667 313.5515,-302.3333 316.3848,-299.5 319.2182,-299.5 319.2182,-299.5 410.9874,-299.5 410.9874,-299.5 413.8207,-299.5 416.6541,-302.3333 416.6541,-305.1667 416.6541,-305.1667 416.6541,-310.8333 416.6541,-310.8333 416.6541,-313.6667 413.8207,-316.5 410.9874,-316.5"/>
<text text-anchor="middle" x="365.1028" y="-305.3" font-family="Helvetica,sans-Serif" font-size="9.00" fill="#000000">app&#45;routing.module.ts</text>
</a>
</g>
</g>
<!-- src/app/auth.guard.ts -->
<g id="node2" class="node">
<title>src/app/auth.guard.ts</title>
<g id="a_node2"><a xlink:href="src/app/auth.guard.ts" xlink:title="auth.guard.ts">
<path fill="#ddfeff" stroke="#000000" d="M543.5444,-258.5C543.5444,-258.5 486.8013,-258.5 486.8013,-258.5 483.968,-258.5 481.1347,-255.6667 481.1347,-252.8333 481.1347,-252.8333 481.1347,-247.1667 481.1347,-247.1667 481.1347,-244.3333 483.968,-241.5 486.8013,-241.5 486.8013,-241.5 543.5444,-241.5 543.5444,-241.5 546.3777,-241.5 549.211,-244.3333 549.211,-247.1667 549.211,-247.1667 549.211,-252.8333 549.211,-252.8333 549.211,-255.6667 546.3777,-258.5 543.5444,-258.5"/>
<text text-anchor="middle" x="515.1729" y="-247.3" font-family="Helvetica,sans-Serif" font-size="9.00" fill="#000000">auth.guard.ts</text>
</a>
</g>
</g>
<!-- src/app/app&#45;routing.module.ts&#45;&gt;src/app/auth.guard.ts -->
<g id="edge1" class="edge">
<title>src/app/app&#45;routing.module.ts&#45;&gt;src/app/auth.guard.ts</title>
<path fill="none" stroke="#000000" stroke-width="2" stroke-opacity="0.200000" d="M387.2461,-299.4419C413.7352,-289.2042 458.1174,-272.0511 487.0185,-260.8813"/>
<polygon fill="#000000" fill-opacity="0.200000" stroke="#000000" stroke-width="2" stroke-opacity="0.200000" points="488.0992,-262.7151 492.9386,-258.5932 486.585,-258.7975 488.0992,-262.7151"/>
</g>
<!-- src/app/buy/buy.component.ts -->
<g id="node3" class="node">
<title>src/app/buy/buy.component.ts</title>
<g id="a_node3"><a xlink:href="src/app/buy/buy.component.ts" xlink:title="buy.component.ts">
<path fill="#ddfeff" stroke="#000000" d="M552.8854,-786.5C552.8854,-786.5 477.4603,-786.5 477.4603,-786.5 474.6269,-786.5 471.7936,-783.6667 471.7936,-780.8333 471.7936,-780.8333 471.7936,-775.1667 471.7936,-775.1667 471.7936,-772.3333 474.6269,-769.5 477.4603,-769.5 477.4603,-769.5 552.8854,-769.5 552.8854,-769.5 555.7188,-769.5 558.5521,-772.3333 558.5521,-775.1667 558.5521,-775.1667 558.5521,-780.8333 558.5521,-780.8333 558.5521,-783.6667 555.7188,-786.5 552.8854,-786.5"/>
<text text-anchor="middle" x="515.1729" y="-775.3" font-family="Helvetica,sans-Serif" font-size="9.00" fill="#000000">buy.component.ts</text>
</a>
</g>
</g>
<!-- src/app/app&#45;routing.module.ts&#45;&gt;src/app/buy/buy.component.ts -->
<g id="edge2" class="edge">
<title>src/app/app&#45;routing.module.ts&#45;&gt;src/app/buy/buy.component.ts</title>
<path fill="none" stroke="#000000" stroke-width="2" stroke-opacity="0.200000" d="M381.7015,-316.66C398.6446,-326.5316 423.99,-344.4043 435.1426,-368 444.3558,-387.4925 430.1378,-738.8037 443.1426,-756 448.836,-763.5285 457.046,-768.5604 465.9005,-771.9053"/>
<polygon fill="#000000" fill-opacity="0.200000" stroke="#000000" stroke-width="2" stroke-opacity="0.200000" points="465.4361,-773.964 471.7923,-773.8689 466.7642,-769.9795 465.4361,-773.964"/>
</g>
<!-- src/app/contactus/contactus.component.ts -->
<g id="node4" class="node">
<title>src/app/contactus/contactus.component.ts</title>
<g id="a_node4"><a xlink:href="src/app/contactus/contactus.component.ts" xlink:title="contactus.component.ts">
<path fill="#ddfeff" stroke="#000000" d="M565.0599,-550.5C565.0599,-550.5 465.2858,-550.5 465.2858,-550.5 462.4525,-550.5 459.6191,-547.6667 459.6191,-544.8333 459.6191,-544.8333 459.6191,-539.1667 459.6191,-539.1667 459.6191,-536.3333 462.4525,-533.5 465.2858,-533.5 465.2858,-533.5 565.0599,-533.5 565.0599,-533.5 567.8932,-533.5 570.7266,-536.3333 570.7266,-539.1667 570.7266,-539.1667 570.7266,-544.8333 570.7266,-544.8333 570.7266,-547.6667 567.8932,-550.5 565.0599,-550.5"/>
<text text-anchor="middle" x="515.1729" y="-539.3" font-family="Helvetica,sans-Serif" font-size="9.00" fill="#000000">contactus.component.ts</text>
</a>
</g>
</g>
<!-- src/app/app&#45;routing.module.ts&#45;&gt;src/app/contactus/contactus.component.ts -->
<g id="edge3" class="edge">
<title>src/app/app&#45;routing.module.ts&#45;&gt;src/app/contactus/contactus.component.ts</title>
<path fill="none" stroke="#000000" stroke-width="2" stroke-opacity="0.200000" d="M416.723,-313.0574C423.8276,-315.9076 430.3256,-320.0461 435.1426,-326 448.7119,-342.7722 429.953,-502.9276 443.1426,-520 446.4176,-524.2391 450.4892,-527.6849 455.0185,-530.4827"/>
<polygon fill="#000000" fill-opacity="0.200000" stroke="#000000" stroke-width="2" stroke-opacity="0.200000" points="454.2512,-532.4558 460.5254,-533.478 456.258,-528.7663 454.2512,-532.4558"/>
</g>
<!-- src/app/entry/entry.component.ts -->
<g id="node5" class="node">
<title>src/app/entry/entry.component.ts</title>
<g id="a_node5"><a xlink:href="src/app/entry/entry.component.ts" xlink:title="entry.component.ts">
<path fill="#ddfeff" stroke="#000000" d="M555.3822,-668.5C555.3822,-668.5 474.9635,-668.5 474.9635,-668.5 472.1301,-668.5 469.2968,-665.6667 469.2968,-662.8333 469.2968,-662.8333 469.2968,-657.1667 469.2968,-657.1667 469.2968,-654.3333 472.1301,-651.5 474.9635,-651.5 474.9635,-651.5 555.3822,-651.5 555.3822,-651.5 558.2156,-651.5 561.0489,-654.3333 561.0489,-657.1667 561.0489,-657.1667 561.0489,-662.8333 561.0489,-662.8333 561.0489,-665.6667 558.2156,-668.5 555.3822,-668.5"/>
<text text-anchor="middle" x="515.1729" y="-657.3" font-family="Helvetica,sans-Serif" font-size="9.00" fill="#000000">entry.component.ts</text>
</a>
</g>
</g>
<!-- src/app/app&#45;routing.module.ts&#45;&gt;src/app/entry/entry.component.ts -->
<g id="edge4" class="edge">
<title>src/app/app&#45;routing.module.ts&#45;&gt;src/app/entry/entry.component.ts</title>
<path fill="none" stroke="#000000" stroke-width="2" stroke-opacity="0.200000" d="M402.8446,-316.6033C415.2181,-321.3832 427.6918,-328.7394 435.1426,-340 453.4203,-367.6236 423.0811,-611.6434 443.1426,-638 448.2543,-644.7157 455.3675,-649.4435 463.1479,-652.7589"/>
<polygon fill="#000000" fill-opacity="0.200000" stroke="#000000" stroke-width="2" stroke-opacity="0.200000" points="462.8502,-654.8898 469.2056,-655.0284 464.3237,-650.9568 462.8502,-654.8898"/>
</g>
<!-- src/app/home/home.component.ts -->
<g id="node6" class="node">
<title>src/app/home/home.component.ts</title>
<g id="a_node6"><a xlink:href="src/app/home/home.component.ts" xlink:title="home.component.ts">
<path fill="#ddfeff" stroke="#000000" d="M557.0506,-491.5C557.0506,-491.5 473.2951,-491.5 473.2951,-491.5 470.4617,-491.5 467.6284,-488.6667 467.6284,-485.8333 467.6284,-485.8333 467.6284,-480.1667 467.6284,-480.1667 467.6284,-477.3333 470.4617,-474.5 473.2951,-474.5 473.2951,-474.5 557.0506,-474.5 557.0506,-474.5 559.884,-474.5 562.7173,-477.3333 562.7173,-480.1667 562.7173,-480.1667 562.7173,-485.8333 562.7173,-485.8333 562.7173,-488.6667 559.884,-491.5 557.0506,-491.5"/>
<text text-anchor="middle" x="515.1729" y="-480.3" font-family="Helvetica,sans-Serif" font-size="9.00" fill="#000000">home.component.ts</text>
</a>
</g>
</g>
<!-- src/app/app&#45;routing.module.ts&#45;&gt;src/app/home/home.component.ts -->
<g id="edge5" class="edge">
<title>src/app/app&#45;routing.module.ts&#45;&gt;src/app/home/home.component.ts</title>
<path fill="none" stroke="#000000" stroke-width="2" stroke-opacity="0.200000" d="M416.6512,-313.1159C423.7647,-315.9588 430.2844,-320.0797 435.1426,-326 455.6141,-350.9469 421.6119,-446.9613 443.1426,-471 448.0986,-476.5333 454.5593,-480.1623 461.5764,-482.4689"/>
<polygon fill="#000000" fill-opacity="0.200000" stroke="#000000" stroke-width="2" stroke-opacity="0.200000" points="461.2395,-484.5537 467.5808,-484.1081 462.3457,-480.5019 461.2395,-484.5537"/>
</g>
<!-- src/app/housedetail/housedetail.component.ts -->
<g id="node7" class="node">
<title>src/app/housedetail/housedetail.component.ts</title>
<g id="a_node7"><a xlink:href="src/app/housedetail/housedetail.component.ts" xlink:title="housedetail.component.ts">
<path fill="#ddfeff" stroke="#000000" d="M568.5753,-609.5C568.5753,-609.5 461.7704,-609.5 461.7704,-609.5 458.937,-609.5 456.1037,-606.6667 456.1037,-603.8333 456.1037,-603.8333 456.1037,-598.1667 456.1037,-598.1667 456.1037,-595.3333 458.937,-592.5 461.7704,-592.5 461.7704,-592.5 568.5753,-592.5 568.5753,-592.5 571.4087,-592.5 574.242,-595.3333 574.242,-598.1667 574.242,-598.1667 574.242,-603.8333 574.242,-603.8333 574.242,-606.6667 571.4087,-609.5 568.5753,-609.5"/>
<text text-anchor="middle" x="515.1729" y="-598.3" font-family="Helvetica,sans-Serif" font-size="9.00" fill="#000000">housedetail.component.ts</text>
</a>
</g>
</g>
<!-- src/app/app&#45;routing.module.ts&#45;&gt;src/app/housedetail/housedetail.component.ts -->
<g id="edge6" class="edge">
<title>src/app/app&#45;routing.module.ts&#45;&gt;src/app/housedetail/housedetail.component.ts</title>
<path fill="none" stroke="#000000" stroke-width="2" stroke-opacity="0.200000" d="M416.7729,-313.0173C423.8712,-315.8725 430.3543,-320.023 435.1426,-326 452.7273,-347.95 426.0548,-556.661 443.1426,-579 446.3401,-583.1802 450.3128,-586.5897 454.7378,-589.3676"/>
<polygon fill="#000000" fill-opacity="0.200000" stroke="#000000" stroke-width="2" stroke-opacity="0.200000" points="453.8543,-591.2788 460.1208,-592.3468 455.8881,-587.604 453.8543,-591.2788"/>
</g>
<!-- src/app/userprofile/userprofile.component.ts -->
<g id="node8" class="node">
<title>src/app/userprofile/userprofile.component.ts</title>
<g id="a_node8"><a xlink:href="src/app/userprofile/userprofile.component.ts" xlink:title="userprofile.component.ts">
<path fill="#ddfeff" stroke="#000000" d="M566.5588,-727.5C566.5588,-727.5 463.7869,-727.5 463.7869,-727.5 460.9536,-727.5 458.1202,-724.6667 458.1202,-721.8333 458.1202,-721.8333 458.1202,-716.1667 458.1202,-716.1667 458.1202,-713.3333 460.9536,-710.5 463.7869,-710.5 463.7869,-710.5 566.5588,-710.5 566.5588,-710.5 569.3921,-710.5 572.2255,-713.3333 572.2255,-716.1667 572.2255,-716.1667 572.2255,-721.8333 572.2255,-721.8333 572.2255,-724.6667 569.3921,-727.5 566.5588,-727.5"/>
<text text-anchor="middle" x="515.1729" y="-716.3" font-family="Helvetica,sans-Serif" font-size="9.00" fill="#000000">userprofile.component.ts</text>
</a>
</g>
</g>
<!-- src/app/app&#45;routing.module.ts&#45;&gt;src/app/userprofile/userprofile.component.ts -->
<g id="edge7" class="edge">
<title>src/app/app&#45;routing.module.ts&#45;&gt;src/app/userprofile/userprofile.component.ts</title>
<path fill="none" stroke="#000000" stroke-width="2" stroke-opacity="0.200000" d="M388.7818,-316.6493C404.9551,-323.9302 425.1917,-336.0631 435.1426,-354 444.3893,-370.6676 431.6248,-681.8127 443.1426,-697 446.3228,-701.1934 450.2835,-704.612 454.7008,-707.3958"/>
<polygon fill="#000000" fill-opacity="0.200000" stroke="#000000" stroke-width="2" stroke-opacity="0.200000" points="453.8115,-709.304 460.0766,-710.3805 455.8503,-705.632 453.8115,-709.304"/>
</g>
<!-- src/app/carousal/carousal.component.ts -->
<g id="node13" class="node">
<title>src/app/carousal/carousal.component.ts</title>
<g id="a_node13"><a xlink:href="src/app/carousal/carousal.component.ts" xlink:title="carousal.component.ts">
<path fill="#ddfeff" stroke="#000000" d="M692.8614,-845.5C692.8614,-845.5 598.0942,-845.5 598.0942,-845.5 595.2609,-845.5 592.4275,-842.6667 592.4275,-839.8333 592.4275,-839.8333 592.4275,-834.1667 592.4275,-834.1667 592.4275,-831.3333 595.2609,-828.5 598.0942,-828.5 598.0942,-828.5 692.8614,-828.5 692.8614,-828.5 695.6947,-828.5 698.528,-831.3333 698.528,-834.1667 698.528,-834.1667 698.528,-839.8333 698.528,-839.8333 698.528,-842.6667 695.6947,-845.5 692.8614,-845.5"/>
<text text-anchor="middle" x="645.4778" y="-834.3" font-family="Helvetica,sans-Serif" font-size="9.00" fill="#000000">carousal.component.ts</text>
</a>
</g>
</g>
<!-- src/app/buy/buy.component.ts&#45;&gt;src/app/carousal/carousal.component.ts -->
<g id="edge27" class="edge">
<title>src/app/buy/buy.component.ts&#45;&gt;src/app/carousal/carousal.component.ts</title>
<path fill="none" stroke="#000000" stroke-width="2" stroke-opacity="0.200000" d="M534.1203,-786.5791C557.0882,-796.9786 595.8395,-814.5246 621.0359,-825.9331"/>
<polygon fill="#000000" fill-opacity="0.200000" stroke="#000000" stroke-width="2" stroke-opacity="0.200000" points="620.1754,-827.8487 626.5075,-828.4105 621.9078,-824.0226 620.1754,-827.8487"/>
</g>
<!-- src/app/app.component.spec.ts -->
<g id="node9" class="node">
<title>src/app/app.component.spec.ts</title>
<g id="a_node9"><a xlink:href="src/app/app.component.spec.ts" xlink:title="app.component.spec.ts">
<path fill="#ddfeff" stroke="#000000" d="M255.4234,-457.5C255.4234,-457.5 157.6396,-457.5 157.6396,-457.5 154.8062,-457.5 151.9729,-454.6667 151.9729,-451.8333 151.9729,-451.8333 151.9729,-446.1667 151.9729,-446.1667 151.9729,-443.3333 154.8062,-440.5 157.6396,-440.5 157.6396,-440.5 255.4234,-440.5 255.4234,-440.5 258.2568,-440.5 261.0901,-443.3333 261.0901,-446.1667 261.0901,-446.1667 261.0901,-451.8333 261.0901,-451.8333 261.0901,-454.6667 258.2568,-457.5 255.4234,-457.5"/>
<text text-anchor="middle" x="206.5315" y="-446.3" font-family="Helvetica,sans-Serif" font-size="9.00" fill="#000000">app.component.spec.ts</text>
</a>
</g>
</g>
<!-- src/app/app.component.ts -->
<g id="node10" class="node">
<title>src/app/app.component.ts</title>
<g id="a_node10"><a xlink:href="src/app/app.component.ts" xlink:title="app.component.ts">
<path fill="#ddfeff" stroke="#000000" d="M402.9846,-457.5C402.9846,-457.5 327.2209,-457.5 327.2209,-457.5 324.3876,-457.5 321.5543,-454.6667 321.5543,-451.8333 321.5543,-451.8333 321.5543,-446.1667 321.5543,-446.1667 321.5543,-443.3333 324.3876,-440.5 327.2209,-440.5 327.2209,-440.5 402.9846,-440.5 402.9846,-440.5 405.818,-440.5 408.6513,-443.3333 408.6513,-446.1667 408.6513,-446.1667 408.6513,-451.8333 408.6513,-451.8333 408.6513,-454.6667 405.818,-457.5 402.9846,-457.5"/>
<text text-anchor="middle" x="365.1028" y="-446.3" font-family="Helvetica,sans-Serif" font-size="9.00" fill="#000000">app.component.ts</text>
</a>
</g>
</g>
<!-- src/app/app.component.spec.ts&#45;&gt;src/app/app.component.ts -->
<g id="edge8" class="edge">
<title>src/app/app.component.spec.ts&#45;&gt;src/app/app.component.ts</title>
<path fill="none" stroke="#000000" stroke-width="2" stroke-opacity="0.200000" d="M261.1027,-449C278.6564,-449 298.0058,-449 315.2058,-449"/>
<polygon fill="#000000" fill-opacity="0.200000" stroke="#000000" stroke-width="2" stroke-opacity="0.200000" points="315.4381,-451.1001 321.4381,-449 315.438,-446.9001 315.4381,-451.1001"/>
</g>
<!-- src/app/app.module.ts -->
<g id="node11" class="node">
<title>src/app/app.module.ts</title>
<g id="a_node11"><a xlink:href="src/app/app.module.ts" xlink:title="app.module.ts">
<path fill="#ddfeff" stroke="#000000" d="M236.9019,-316.5C236.9019,-316.5 176.161,-316.5 176.161,-316.5 173.3277,-316.5 170.4944,-313.6667 170.4944,-310.8333 170.4944,-310.8333 170.4944,-305.1667 170.4944,-305.1667 170.4944,-302.3333 173.3277,-299.5 176.161,-299.5 176.161,-299.5 236.9019,-299.5 236.9019,-299.5 239.7353,-299.5 242.5686,-302.3333 242.5686,-305.1667 242.5686,-305.1667 242.5686,-310.8333 242.5686,-310.8333 242.5686,-313.6667 239.7353,-316.5 236.9019,-316.5"/>
<text text-anchor="middle" x="206.5315" y="-305.3" font-family="Helvetica,sans-Serif" font-size="9.00" fill="#000000">app.module.ts</text>
</a>
</g>
</g>
<!-- src/app/app.module.ts&#45;&gt;src/app/app&#45;routing.module.ts -->
<g id="edge9" class="edge">
<title>src/app/app.module.ts&#45;&gt;src/app/app&#45;routing.module.ts</title>
<path fill="none" stroke="#000000" stroke-width="2" stroke-opacity="0.200000" d="M242.911,-308C262.0505,-308 285.9638,-308 307.5484,-308"/>
<polygon fill="#000000" fill-opacity="0.200000" stroke="#000000" stroke-width="2" stroke-opacity="0.200000" points="307.5688,-310.1001 313.5687,-308 307.5687,-305.9001 307.5688,-310.1001"/>
</g>
<!-- src/app/app.module.ts&#45;&gt;src/app/auth.guard.ts -->
<g id="edge11" class="edge">
<title>src/app/app.module.ts&#45;&gt;src/app/auth.guard.ts</title>
<path fill="none" stroke="#000000" stroke-width="2" stroke-opacity="0.200000" d="M212.8072,-299.1585C224.9444,-282.9225 253.4238,-248.8451 287.063,-236 352.8669,-210.8728 437.1036,-227.3284 482.5623,-239.7774"/>
<polygon fill="#000000" fill-opacity="0.200000" stroke="#000000" stroke-width="2" stroke-opacity="0.200000" points="482.1015,-241.8292 488.4456,-241.4259 483.2348,-237.7849 482.1015,-241.8292"/>
</g>
<!-- src/app/app.module.ts&#45;&gt;src/app/buy/buy.component.ts -->
<g id="edge13" class="edge">
<title>src/app/app.module.ts&#45;&gt;src/app/buy/buy.component.ts</title>
<path fill="none" stroke="#000000" stroke-width="2" stroke-opacity="0.200000" d="M216.0821,-316.7112C230.3443,-329.1485 258.5911,-351.6341 287.063,-362 318.164,-373.3231 412.7721,-353.6064 435.1426,-378 449.3393,-393.4806 430.4682,-739.2501 443.1426,-756 448.8381,-763.5269 457.0489,-768.5582 465.9037,-771.9029"/>
<polygon fill="#000000" fill-opacity="0.200000" stroke="#000000" stroke-width="2" stroke-opacity="0.200000" points="465.4393,-773.9616 471.7956,-773.8665 466.7673,-769.9771 465.4393,-773.9616"/>
</g>
<!-- src/app/app.module.ts&#45;&gt;src/app/contactus/contactus.component.ts -->
<g id="edge15" class="edge">
<title>src/app/app.module.ts&#45;&gt;src/app/contactus/contactus.component.ts</title>
<path fill="none" stroke="#000000" stroke-width="2" stroke-opacity="0.200000" d="M242.9582,-299.572C300.4928,-287.2435 408.6066,-268.3867 435.1426,-294 453.2215,-311.4503 427.8388,-500.0713 443.1426,-520 446.348,-524.1741 450.3261,-527.5795 454.7546,-530.3548"/>
<polygon fill="#000000" fill-opacity="0.200000" stroke="#000000" stroke-width="2" stroke-opacity="0.200000" points="453.8737,-532.2673 460.1409,-533.3315 455.9052,-528.5913 453.8737,-532.2673"/>
</g>
<!-- src/app/app.module.ts&#45;&gt;src/app/entry/entry.component.ts -->
<g id="edge16" class="edge">
<title>src/app/app.module.ts&#45;&gt;src/app/entry/entry.component.ts</title>
<path fill="none" stroke="#000000" stroke-width="2" stroke-opacity="0.200000" d="M228.076,-316.508C244.1084,-322.5219 266.654,-330.317 287.063,-335 319.399,-342.4198 412.8784,-329.4037 435.1426,-354 456.3275,-377.4039 424.0062,-612.8934 443.1426,-638 448.2588,-644.7124 455.3741,-649.4385 463.1553,-652.7532"/>
<polygon fill="#000000" fill-opacity="0.200000" stroke="#000000" stroke-width="2" stroke-opacity="0.200000" points="462.858,-654.8842 469.2134,-655.0224 464.3313,-650.9511 462.858,-654.8842"/>
</g>
<!-- src/app/app.module.ts&#45;&gt;src/app/home/home.component.ts -->
<g id="edge18" class="edge">
<title>src/app/app.module.ts&#45;&gt;src/app/home/home.component.ts</title>
<path fill="none" stroke="#000000" stroke-width="2" stroke-opacity="0.200000" d="M226.9537,-299.4431C242.9782,-293.2141 266.0191,-285.3129 287.063,-282 319.5692,-276.8826 411.3872,-259.2289 435.1426,-282 450.3161,-296.5449 429.2199,-455.2536 443.1426,-471 448.063,-476.5649 454.5045,-480.2111 461.513,-482.5253"/>
<polygon fill="#000000" fill-opacity="0.200000" stroke="#000000" stroke-width="2" stroke-opacity="0.200000" points="461.1709,-484.6089 467.5125,-484.1688 462.2806,-480.5581 461.1709,-484.6089"/>
</g>
<!-- src/app/app.module.ts&#45;&gt;src/app/housedetail/housedetail.component.ts -->
<g id="edge19" class="edge">
<title>src/app/app.module.ts&#45;&gt;src/app/housedetail/housedetail.component.ts</title>
<path fill="none" stroke="#000000" stroke-width="2" stroke-opacity="0.200000" d="M242.9215,-315.3356C256.7118,-317.9686 272.5775,-320.8222 287.063,-323 319.8176,-327.9245 412.6869,-315.6514 435.1426,-340 453.1561,-359.532 426.9798,-557.9108 443.1426,-579 446.344,-583.1772 450.3193,-586.5847 454.746,-589.3613"/>
<polygon fill="#000000" fill-opacity="0.200000" stroke="#000000" stroke-width="2" stroke-opacity="0.200000" points="453.8638,-591.2731 460.1307,-592.3393 455.8965,-587.5978 453.8638,-591.2731"/>
</g>
<!-- src/app/app.module.ts&#45;&gt;src/app/userprofile/userprofile.component.ts -->
<g id="edge22" class="edge">
<title>src/app/app.module.ts&#45;&gt;src/app/userprofile/userprofile.component.ts</title>
<path fill="none" stroke="#000000" stroke-width="2" stroke-opacity="0.200000" d="M220.207,-316.5377C235.7821,-325.8379 262.2883,-340.4007 287.063,-348 318.8085,-357.7376 412.9883,-343.2657 435.1426,-368 447.3409,-381.6189 432.0875,-682.4378 443.1426,-697 446.3248,-701.1918 450.287,-704.6093 454.7053,-707.3924"/>
<polygon fill="#000000" fill-opacity="0.200000" stroke="#000000" stroke-width="2" stroke-opacity="0.200000" points="453.8166,-709.301 460.0819,-710.3765 455.8548,-705.6286 453.8166,-709.301"/>
</g>
<!-- src/app/app.module.ts&#45;&gt;src/app/app.component.ts -->
<g id="edge10" class="edge">
<title>src/app/app.module.ts&#45;&gt;src/app/app.component.ts</title>
<path fill="none" stroke="#000000" stroke-width="2" stroke-opacity="0.200000" d="M219.8338,-316.5943C236.6981,-328.2812 265.2372,-350.8694 279.063,-378 290.6782,-400.7927 269.3216,-416.5701 287.063,-435 294.4844,-442.7095 304.5953,-447.0276 315.0778,-449.3032"/>
<polygon fill="#000000" fill-opacity="0.200000" stroke="#000000" stroke-width="2" stroke-opacity="0.200000" points="314.9983,-451.4225 321.2752,-450.4172 315.7414,-447.2887 314.9983,-451.4225"/>
</g>
<!-- src/app/auth.service.ts -->
<g id="node12" class="node">
<title>src/app/auth.service.ts</title>
<g id="a_node12"><a xlink:href="src/app/auth.service.ts" xlink:title="auth.service.ts">
<path fill="#ddfeff" stroke="#000000" d="M546.5316,-157.5C546.5316,-157.5 483.8141,-157.5 483.8141,-157.5 480.9808,-157.5 478.1475,-154.6667 478.1475,-151.8333 478.1475,-151.8333 478.1475,-146.1667 478.1475,-146.1667 478.1475,-143.3333 480.9808,-140.5 483.8141,-140.5 483.8141,-140.5 546.5316,-140.5 546.5316,-140.5 549.3649,-140.5 552.1982,-143.3333 552.1982,-146.1667 552.1982,-146.1667 552.1982,-151.8333 552.1982,-151.8333 552.1982,-154.6667 549.3649,-157.5 546.5316,-157.5"/>
<text text-anchor="middle" x="515.1729" y="-146.3" font-family="Helvetica,sans-Serif" font-size="9.00" fill="#000000">auth.service.ts</text>
</a>
</g>
</g>
<!-- src/app/app.module.ts&#45;&gt;src/app/auth.service.ts -->
<g id="edge12" class="edge">
<title>src/app/app.module.ts&#45;&gt;src/app/auth.service.ts</title>
<path fill="none" stroke="#000000" stroke-width="2" stroke-opacity="0.200000" d="M210.7028,-299.3044C220.7141,-279.5094 248.1891,-231.1672 287.063,-210 345.2427,-178.3206 372.0244,-213.1137 435.1426,-193 458.1502,-185.6682 482.107,-171.4876 497.7409,-161.2018"/>
<polygon fill="#000000" fill-opacity="0.200000" stroke="#000000" stroke-width="2" stroke-opacity="0.200000" points="499.29,-162.6919 503.107,-157.6084 496.953,-159.202 499.29,-162.6919"/>
</g>
<!-- src/app/app.module.ts&#45;&gt;src/app/carousal/carousal.component.ts -->
<g id="edge14" class="edge">
<title>src/app/app.module.ts&#45;&gt;src/app/carousal/carousal.component.ts</title>
<path fill="none" stroke="#000000" stroke-width="2" stroke-opacity="0.200000" d="M211.0936,-299.2297C221.5221,-280.2696 249.16,-235.8199 287.063,-219 317.1129,-205.665 559.3316,-212.6325 582.457,-236 625.0715,-279.0606 642.0912,-733.6905 645.0108,-822.1366"/>
<polygon fill="#000000" fill-opacity="0.200000" stroke="#000000" stroke-width="2" stroke-opacity="0.200000" points="642.9169,-822.3611 645.2104,-828.2899 647.1146,-822.2249 642.9169,-822.3611"/>
</g>
<!-- src/app/footer/footer.component.ts -->
<g id="node14" class="node">
<title>src/app/footer/footer.component.ts</title>
<g id="a_node14"><a xlink:href="src/app/footer/footer.component.ts" xlink:title="footer.component.ts">
<path fill="#ddfeff" stroke="#000000" d="M406.9894,-406.5C406.9894,-406.5 323.2162,-406.5 323.2162,-406.5 320.3829,-406.5 317.5495,-403.6667 317.5495,-400.8333 317.5495,-400.8333 317.5495,-395.1667 317.5495,-395.1667 317.5495,-392.3333 320.3829,-389.5 323.2162,-389.5 323.2162,-389.5 406.9894,-389.5 406.9894,-389.5 409.8227,-389.5 412.656,-392.3333 412.656,-395.1667 412.656,-395.1667 412.656,-400.8333 412.656,-400.8333 412.656,-403.6667 409.8227,-406.5 406.9894,-406.5"/>
<text text-anchor="middle" x="365.1028" y="-395.3" font-family="Helvetica,sans-Serif" font-size="9.00" fill="#000000">footer.component.ts</text>
</a>
</g>
</g>
<!-- src/app/app.module.ts&#45;&gt;src/app/footer/footer.component.ts -->
<g id="edge17" class="edge">
<title>src/app/app.module.ts&#45;&gt;src/app/footer/footer.component.ts</title>
<path fill="none" stroke="#000000" stroke-width="2" stroke-opacity="0.200000" d="M215.5139,-316.5704C229.2679,-329.7156 256.3423,-355.6793 279.063,-378 282.65,-381.5238 282.5776,-383.7273 287.063,-386 294.4684,-389.7523 302.7376,-392.4008 311.0474,-394.2577"/>
<polygon fill="#000000" fill-opacity="0.200000" stroke="#000000" stroke-width="2" stroke-opacity="0.200000" points="311.1008,-396.41 317.3963,-395.5286 311.9252,-392.2917 311.1008,-396.41"/>
</g>
<!-- src/app/material.ts -->
<g id="node15" class="node">
<title>src/app/material.ts</title>
<g id="a_node15"><a xlink:href="src/app/material.ts" xlink:title="material.ts">
<path fill="#ddfeff" stroke="#000000" d="M387.9489,-186.5C387.9489,-186.5 342.2566,-186.5 342.2566,-186.5 339.4233,-186.5 336.59,-183.6667 336.59,-180.8333 336.59,-180.8333 336.59,-175.1667 336.59,-175.1667 336.59,-172.3333 339.4233,-169.5 342.2566,-169.5 342.2566,-169.5 387.9489,-169.5 387.9489,-169.5 390.7823,-169.5 393.6156,-172.3333 393.6156,-175.1667 393.6156,-175.1667 393.6156,-180.8333 393.6156,-180.8333 393.6156,-183.6667 390.7823,-186.5 387.9489,-186.5"/>
<text text-anchor="middle" x="365.1028" y="-175.3" font-family="Helvetica,sans-Serif" font-size="9.00" fill="#000000">material.ts</text>
</a>
</g>
</g>
<!-- src/app/app.module.ts&#45;&gt;src/app/material.ts -->
<g id="edge20" class="edge">
<title>src/app/app.module.ts&#45;&gt;src/app/material.ts</title>
<path fill="none" stroke="#000000" stroke-width="2" stroke-opacity="0.200000" d="M210.1149,-299.3637C219.3998,-278.1149 246.3864,-223.0618 287.063,-196 299.826,-187.5089 316.07,-182.9929 330.4296,-180.6031"/>
<polygon fill="#000000" fill-opacity="0.200000" stroke="#000000" stroke-width="2" stroke-opacity="0.200000" points="330.8287,-182.6668 336.4527,-179.7036 330.2083,-178.5129 330.8287,-182.6668"/>
</g>
<!-- src/app/token&#45;interceptor.service.ts -->
<g id="node16" class="node">
<title>src/app/token&#45;interceptor.service.ts</title>
<g id="a_node16"><a xlink:href="src/app/token-interceptor.service.ts" xlink:title="token&#45;interceptor.service.ts">
<path fill="#ddfeff" stroke="#000000" d="M420.9887,-157.5C420.9887,-157.5 309.2169,-157.5 309.2169,-157.5 306.3835,-157.5 303.5502,-154.6667 303.5502,-151.8333 303.5502,-151.8333 303.5502,-146.1667 303.5502,-146.1667 303.5502,-143.3333 306.3835,-140.5 309.2169,-140.5 309.2169,-140.5 420.9887,-140.5 420.9887,-140.5 423.822,-140.5 426.6554,-143.3333 426.6554,-146.1667 426.6554,-146.1667 426.6554,-151.8333 426.6554,-151.8333 426.6554,-154.6667 423.822,-157.5 420.9887,-157.5"/>
<text text-anchor="middle" x="365.1028" y="-146.3" font-family="Helvetica,sans-Serif" font-size="9.00" fill="#000000">token&#45;interceptor.service.ts</text>
</a>
</g>
</g>
<!-- src/app/app.module.ts&#45;&gt;src/app/token&#45;interceptor.service.ts -->
<g id="edge21" class="edge">
<title>src/app/app.module.ts&#45;&gt;src/app/token&#45;interceptor.service.ts</title>
<path fill="none" stroke="#000000" stroke-width="2" stroke-opacity="0.200000" d="M211.3018,-299.4423C228.5475,-268.5076 286.6675,-164.2856 287.063,-164 290.3697,-161.6123 293.9533,-159.5761 297.7059,-157.8419"/>
<polygon fill="#000000" fill-opacity="0.200000" stroke="#000000" stroke-width="2" stroke-opacity="0.200000" points="298.5778,-159.7538 303.3121,-155.5116 296.9656,-155.8755 298.5778,-159.7538"/>
</g>
<!-- src/app/token&#45;interceptor.service.ts&#45;&gt;src/app/auth.service.ts -->
<g id="edge37" class="edge">
<title>src/app/token&#45;interceptor.service.ts&#45;&gt;src/app/auth.service.ts</title>
<path fill="none" stroke="#000000" stroke-width="2" stroke-opacity="0.200000" d="M427.0084,-149C441.9919,-149 457.6962,-149 471.6304,-149"/>
<polygon fill="#000000" fill-opacity="0.200000" stroke="#000000" stroke-width="2" stroke-opacity="0.200000" points="471.8992,-151.1001 477.8991,-149 471.8991,-146.9001 471.8992,-151.1001"/>
</g>
<!-- src/app/appointment.service.spec.ts -->
<g id="node17" class="node">
<title>src/app/appointment.service.spec.ts</title>
<g id="a_node17"><a xlink:href="src/app/appointment.service.spec.ts" xlink:title="appointment.service.spec.ts">
<path fill="#ddfeff" stroke="#000000" d="M264.4208,-113.5C264.4208,-113.5 148.6422,-113.5 148.6422,-113.5 145.8089,-113.5 142.9755,-110.6667 142.9755,-107.8333 142.9755,-107.8333 142.9755,-102.1667 142.9755,-102.1667 142.9755,-99.3333 145.8089,-96.5 148.6422,-96.5 148.6422,-96.5 264.4208,-96.5 264.4208,-96.5 267.2541,-96.5 270.0874,-99.3333 270.0874,-102.1667 270.0874,-102.1667 270.0874,-107.8333 270.0874,-107.8333 270.0874,-110.6667 267.2541,-113.5 264.4208,-113.5"/>
<text text-anchor="middle" x="206.5315" y="-102.3" font-family="Helvetica,sans-Serif" font-size="9.00" fill="#000000">appointment.service.spec.ts</text>
</a>
</g>
</g>
<!-- src/app/appointment.service.ts -->
<g id="node18" class="node">
<title>src/app/appointment.service.ts</title>
<g id="a_node18"><a xlink:href="src/app/appointment.service.ts" xlink:title="appointment.service.ts">
<path fill="#ddfeff" stroke="#000000" d="M412.4801,-128.5C412.4801,-128.5 317.7255,-128.5 317.7255,-128.5 314.8922,-128.5 312.0588,-125.6667 312.0588,-122.8333 312.0588,-122.8333 312.0588,-117.1667 312.0588,-117.1667 312.0588,-114.3333 314.8922,-111.5 317.7255,-111.5 317.7255,-111.5 412.4801,-111.5 412.4801,-111.5 415.3134,-111.5 418.1467,-114.3333 418.1467,-117.1667 418.1467,-117.1667 418.1467,-122.8333 418.1467,-122.8333 418.1467,-125.6667 415.3134,-128.5 412.4801,-128.5"/>
<text text-anchor="middle" x="365.1028" y="-117.3" font-family="Helvetica,sans-Serif" font-size="9.00" fill="#000000">appointment.service.ts</text>
</a>
</g>
</g>
<!-- src/app/appointment.service.spec.ts&#45;&gt;src/app/appointment.service.ts -->
<g id="edge23" class="edge">
<title>src/app/appointment.service.spec.ts&#45;&gt;src/app/appointment.service.ts</title>
<path fill="none" stroke="#000000" stroke-width="2" stroke-opacity="0.200000" d="M270.1148,-111.0146C281.8546,-112.1252 294.0729,-113.2809 305.6836,-114.3793"/>
<polygon fill="#000000" fill-opacity="0.200000" stroke="#000000" stroke-width="2" stroke-opacity="0.200000" points="305.5229,-116.4734 311.6941,-114.9478 305.9185,-112.292 305.5229,-116.4734"/>
</g>
<!-- src/app/auth.guard.spec.ts -->
<g id="node19" class="node">
<title>src/app/auth.guard.spec.ts</title>
<g id="a_node19"><a xlink:href="src/app/auth.guard.spec.ts" xlink:title="auth.guard.spec.ts">
<path fill="#ddfeff" stroke="#000000" d="M404.484,-258.5C404.484,-258.5 325.7216,-258.5 325.7216,-258.5 322.8883,-258.5 320.0549,-255.6667 320.0549,-252.8333 320.0549,-252.8333 320.0549,-247.1667 320.0549,-247.1667 320.0549,-244.3333 322.8883,-241.5 325.7216,-241.5 325.7216,-241.5 404.484,-241.5 404.484,-241.5 407.3173,-241.5 410.1506,-244.3333 410.1506,-247.1667 410.1506,-247.1667 410.1506,-252.8333 410.1506,-252.8333 410.1506,-255.6667 407.3173,-258.5 404.484,-258.5"/>
<text text-anchor="middle" x="365.1028" y="-247.3" font-family="Helvetica,sans-Serif" font-size="9.00" fill="#000000">auth.guard.spec.ts</text>
</a>
</g>
</g>
<!-- src/app/auth.guard.spec.ts&#45;&gt;src/app/auth.guard.ts -->
<g id="edge24" class="edge">
<title>src/app/auth.guard.spec.ts&#45;&gt;src/app/auth.guard.ts</title>
<path fill="none" stroke="#000000" stroke-width="2" stroke-opacity="0.200000" d="M410.1288,-250C430.6282,-250 454.7053,-250 474.6333,-250"/>
<polygon fill="#000000" fill-opacity="0.200000" stroke="#000000" stroke-width="2" stroke-opacity="0.200000" points="474.6761,-252.1001 480.6761,-250 474.676,-247.9001 474.6761,-252.1001"/>
</g>
<!-- src/app/auth.service.spec.ts -->
<g id="node20" class="node">
<title>src/app/auth.service.spec.ts</title>
<g id="a_node20"><a xlink:href="src/app/auth.service.spec.ts" xlink:title="auth.service.spec.ts">
<path fill="#ddfeff" stroke="#000000" d="M406.9739,-99.5C406.9739,-99.5 323.2317,-99.5 323.2317,-99.5 320.3984,-99.5 317.565,-96.6667 317.565,-93.8333 317.565,-93.8333 317.565,-88.1667 317.565,-88.1667 317.565,-85.3333 320.3984,-82.5 323.2317,-82.5 323.2317,-82.5 406.9739,-82.5 406.9739,-82.5 409.8072,-82.5 412.6405,-85.3333 412.6405,-88.1667 412.6405,-88.1667 412.6405,-93.8333 412.6405,-93.8333 412.6405,-96.6667 409.8072,-99.5 406.9739,-99.5"/>
<text text-anchor="middle" x="365.1028" y="-88.3" font-family="Helvetica,sans-Serif" font-size="9.00" fill="#000000">auth.service.spec.ts</text>
</a>
</g>
</g>
<!-- src/app/auth.service.spec.ts&#45;&gt;src/app/auth.service.ts -->
<g id="edge25" class="edge">
<title>src/app/auth.service.spec.ts&#45;&gt;src/app/auth.service.ts</title>
<path fill="none" stroke="#000000" stroke-width="2" stroke-opacity="0.200000" d="M412.7134,-99.2984C420.3183,-101.164 428.0221,-103.3846 435.1426,-106 457.2954,-114.1368 480.8918,-127.4513 496.6767,-137.1114"/>
<polygon fill="#000000" fill-opacity="0.200000" stroke="#000000" stroke-width="2" stroke-opacity="0.200000" points="495.9159,-139.1107 502.1216,-140.4887 498.1297,-135.5415 495.9159,-139.1107"/>
</g>
<!-- src/app/buy/buy.component.spec.ts -->
<g id="node21" class="node">
<title>src/app/buy/buy.component.spec.ts</title>
<g id="a_node21"><a xlink:href="src/app/buy/buy.component.spec.ts" xlink:title="buy.component.spec.ts">
<path fill="#ddfeff" stroke="#000000" d="M413.3258,-786.5C413.3258,-786.5 316.8797,-786.5 316.8797,-786.5 314.0464,-786.5 311.2131,-783.6667 311.2131,-780.8333 311.2131,-780.8333 311.2131,-775.1667 311.2131,-775.1667 311.2131,-772.3333 314.0464,-769.5 316.8797,-769.5 316.8797,-769.5 413.3258,-769.5 413.3258,-769.5 416.1592,-769.5 418.9925,-772.3333 418.9925,-775.1667 418.9925,-775.1667 418.9925,-780.8333 418.9925,-780.8333 418.9925,-783.6667 416.1592,-786.5 413.3258,-786.5"/>
<text text-anchor="middle" x="365.1028" y="-775.3" font-family="Helvetica,sans-Serif" font-size="9.00" fill="#000000">buy.component.spec.ts</text>
</a>
</g>
</g>
<!-- src/app/buy/buy.component.spec.ts&#45;&gt;src/app/buy/buy.component.ts -->
<g id="edge26" class="edge">
<title>src/app/buy/buy.component.spec.ts&#45;&gt;src/app/buy/buy.component.ts</title>
<path fill="none" stroke="#000000" stroke-width="2" stroke-opacity="0.200000" d="M419.2815,-778C434.4147,-778 450.7773,-778 465.6281,-778"/>
<polygon fill="#000000" fill-opacity="0.200000" stroke="#000000" stroke-width="2" stroke-opacity="0.200000" points="465.8923,-780.1001 471.8922,-778 465.8922,-775.9001 465.8923,-780.1001"/>
</g>
<!-- src/app/carousal/carousal.component.spec.ts -->
<g id="node22" class="node">
<title>src/app/carousal/carousal.component.spec.ts</title>
<g id="a_node22"><a xlink:href="src/app/carousal/carousal.component.spec.ts" xlink:title="carousal.component.spec.ts">
<path fill="#ddfeff" stroke="#000000" d="M573.5667,-845.5C573.5667,-845.5 456.779,-845.5 456.779,-845.5 453.9456,-845.5 451.1123,-842.6667 451.1123,-839.8333 451.1123,-839.8333 451.1123,-834.1667 451.1123,-834.1667 451.1123,-831.3333 453.9456,-828.5 456.779,-828.5 456.779,-828.5 573.5667,-828.5 573.5667,-828.5 576.4001,-828.5 579.2334,-831.3333 579.2334,-834.1667 579.2334,-834.1667 579.2334,-839.8333 579.2334,-839.8333 579.2334,-842.6667 576.4001,-845.5 573.5667,-845.5"/>
<text text-anchor="middle" x="515.1729" y="-834.3" font-family="Helvetica,sans-Serif" font-size="9.00" fill="#000000">carousal.component.spec.ts</text>
</a>
</g>
</g>
<!-- src/app/carousal/carousal.component.spec.ts&#45;&gt;src/app/carousal/carousal.component.ts -->
<g id="edge28" class="edge">
<title>src/app/carousal/carousal.component.spec.ts&#45;&gt;src/app/carousal/carousal.component.ts</title>
<path fill="none" stroke="#000000" stroke-width="2" stroke-opacity="0.200000" d="M579.5618,-837C581.6777,-837 583.7947,-837 585.9039,-837"/>
<polygon fill="#000000" fill-opacity="0.200000" stroke="#000000" stroke-width="2" stroke-opacity="0.200000" points="586.1988,-839.1001 592.1988,-837 586.1987,-834.9001 586.1988,-839.1001"/>
</g>
<!-- src/app/contactus/contactus.component.spec.ts -->
<g id="node23" class="node">
<title>src/app/contactus/contactus.component.spec.ts</title>
<g id="a_node23"><a xlink:href="src/app/contactus/contactus.component.spec.ts" xlink:title="contactus.component.spec.ts">
<path fill="#ddfeff" stroke="#000000" d="M425.5018,-550.5C425.5018,-550.5 304.7038,-550.5 304.7038,-550.5 301.8705,-550.5 299.0371,-547.6667 299.0371,-544.8333 299.0371,-544.8333 299.0371,-539.1667 299.0371,-539.1667 299.0371,-536.3333 301.8705,-533.5 304.7038,-533.5 304.7038,-533.5 425.5018,-533.5 425.5018,-533.5 428.3351,-533.5 431.1684,-536.3333 431.1684,-539.1667 431.1684,-539.1667 431.1684,-544.8333 431.1684,-544.8333 431.1684,-547.6667 428.3351,-550.5 425.5018,-550.5"/>
<text text-anchor="middle" x="365.1028" y="-539.3" font-family="Helvetica,sans-Serif" font-size="9.00" fill="#000000">contactus.component.spec.ts</text>
</a>
</g>
</g>
<!-- src/app/contactus/contactus.component.spec.ts&#45;&gt;src/app/contactus/contactus.component.ts -->
<g id="edge29" class="edge">
<title>src/app/contactus/contactus.component.spec.ts&#45;&gt;src/app/contactus/contactus.component.ts</title>
<path fill="none" stroke="#000000" stroke-width="2" stroke-opacity="0.200000" d="M431.3625,-542C438.7237,-542 446.1991,-542 453.5,-542"/>
<polygon fill="#000000" fill-opacity="0.200000" stroke="#000000" stroke-width="2" stroke-opacity="0.200000" points="453.5855,-544.1001 459.5855,-542 453.5855,-539.9001 453.5855,-544.1001"/>
</g>
<!-- src/app/data.service.ts -->
<g id="node24" class="node">
<title>src/app/data.service.ts</title>
<g id="a_node24"><a xlink:href="src/app/data.service.ts" xlink:title="data.service.ts">
<path fill="#ccffcc" stroke="#000000" d="M237.8902,-142.5C237.8902,-142.5 175.1728,-142.5 175.1728,-142.5 172.3394,-142.5 169.5061,-139.6667 169.5061,-136.8333 169.5061,-136.8333 169.5061,-131.1667 169.5061,-131.1667 169.5061,-128.3333 172.3394,-125.5 175.1728,-125.5 175.1728,-125.5 237.8902,-125.5 237.8902,-125.5 240.7236,-125.5 243.5569,-128.3333 243.5569,-131.1667 243.5569,-131.1667 243.5569,-136.8333 243.5569,-136.8333 243.5569,-139.6667 240.7236,-142.5 237.8902,-142.5"/>
<text text-anchor="middle" x="206.5315" y="-131.3" font-family="Helvetica,sans-Serif" font-size="9.00" fill="#000000">data.service.ts</text>
</a>
</g>
</g>
<!-- src/app/entry/entry.component.spec.ts -->
<g id="node25" class="node">
<title>src/app/entry/entry.component.spec.ts</title>
<g id="a_node25"><a xlink:href="src/app/entry/entry.component.spec.ts" xlink:title="entry.component.spec.ts">
<path fill="#ddfeff" stroke="#000000" d="M416.324,-668.5C416.324,-668.5 313.8816,-668.5 313.8816,-668.5 311.0482,-668.5 308.2149,-665.6667 308.2149,-662.8333 308.2149,-662.8333 308.2149,-657.1667 308.2149,-657.1667 308.2149,-654.3333 311.0482,-651.5 313.8816,-651.5 313.8816,-651.5 416.324,-651.5 416.324,-651.5 419.1573,-651.5 421.9907,-654.3333 421.9907,-657.1667 421.9907,-657.1667 421.9907,-662.8333 421.9907,-662.8333 421.9907,-665.6667 419.1573,-668.5 416.324,-668.5"/>
<text text-anchor="middle" x="365.1028" y="-657.3" font-family="Helvetica,sans-Serif" font-size="9.00" fill="#000000">entry.component.spec.ts</text>
</a>
</g>
</g>
<!-- src/app/entry/entry.component.spec.ts&#45;&gt;src/app/entry/entry.component.ts -->
<g id="edge30" class="edge">
<title>src/app/entry/entry.component.spec.ts&#45;&gt;src/app/entry/entry.component.ts</title>
<path fill="none" stroke="#000000" stroke-width="2" stroke-opacity="0.200000" d="M421.8378,-660C435.3698,-660 449.7475,-660 463.0602,-660"/>
<polygon fill="#000000" fill-opacity="0.200000" stroke="#000000" stroke-width="2" stroke-opacity="0.200000" points="463.0951,-662.1001 469.0951,-660 463.095,-657.9001 463.0951,-662.1001"/>
</g>
<!-- src/app/footer/footer.component.spec.ts -->
<g id="node26" class="node">
<title>src/app/footer/footer.component.spec.ts</title>
<g id="a_node26"><a xlink:href="src/app/footer/footer.component.spec.ts" xlink:title="footer.component.spec.ts">
<path fill="#ddfeff" stroke="#000000" d="M258.9301,-406.5C258.9301,-406.5 154.1329,-406.5 154.1329,-406.5 151.2996,-406.5 148.4662,-403.6667 148.4662,-400.8333 148.4662,-400.8333 148.4662,-395.1667 148.4662,-395.1667 148.4662,-392.3333 151.2996,-389.5 154.1329,-389.5 154.1329,-389.5 258.9301,-389.5 258.9301,-389.5 261.7634,-389.5 264.5968,-392.3333 264.5968,-395.1667 264.5968,-395.1667 264.5968,-400.8333 264.5968,-400.8333 264.5968,-403.6667 261.7634,-406.5 258.9301,-406.5"/>
<text text-anchor="middle" x="206.5315" y="-395.3" font-family="Helvetica,sans-Serif" font-size="9.00" fill="#000000">footer.component.spec.ts</text>
</a>
</g>
</g>
<!-- src/app/footer/footer.component.spec.ts&#45;&gt;src/app/footer/footer.component.ts -->
<g id="edge31" class="edge">
<title>src/app/footer/footer.component.spec.ts&#45;&gt;src/app/footer/footer.component.ts</title>
<path fill="none" stroke="#000000" stroke-width="2" stroke-opacity="0.200000" d="M264.6772,-398C279.8362,-398 296.1075,-398 311.0451,-398"/>
<polygon fill="#000000" fill-opacity="0.200000" stroke="#000000" stroke-width="2" stroke-opacity="0.200000" points="311.3582,-400.1001 317.3582,-398 311.3582,-395.9001 311.3582,-400.1001"/>
</g>
<!-- src/app/home/home.component.spec.ts -->
<g id="node27" class="node">
<title>src/app/home/home.component.spec.ts</title>
<g id="a_node27"><a xlink:href="src/app/home/home.component.spec.ts" xlink:title="home.component.spec.ts">
<path fill="#ddfeff" stroke="#000000" d="M417.4926,-491.5C417.4926,-491.5 312.7129,-491.5 312.7129,-491.5 309.8796,-491.5 307.0463,-488.6667 307.0463,-485.8333 307.0463,-485.8333 307.0463,-480.1667 307.0463,-480.1667 307.0463,-477.3333 309.8796,-474.5 312.7129,-474.5 312.7129,-474.5 417.4926,-474.5 417.4926,-474.5 420.326,-474.5 423.1593,-477.3333 423.1593,-480.1667 423.1593,-480.1667 423.1593,-485.8333 423.1593,-485.8333 423.1593,-488.6667 420.326,-491.5 417.4926,-491.5"/>
<text text-anchor="middle" x="365.1028" y="-480.3" font-family="Helvetica,sans-Serif" font-size="9.00" fill="#000000">home.component.spec.ts</text>
</a>
</g>
</g>
<!-- src/app/home/home.component.spec.ts&#45;&gt;src/app/home/home.component.ts -->
<g id="edge32" class="edge">
<title>src/app/home/home.component.spec.ts&#45;&gt;src/app/home/home.component.ts</title>
<path fill="none" stroke="#000000" stroke-width="2" stroke-opacity="0.200000" d="M423.5535,-483C435.8881,-483 448.8521,-483 461.02,-483"/>
<polygon fill="#000000" fill-opacity="0.200000" stroke="#000000" stroke-width="2" stroke-opacity="0.200000" points="461.303,-485.1001 467.3029,-483 461.3029,-480.9001 461.303,-485.1001"/>
</g>
<!-- src/app/house.service.spec.ts -->
<g id="node28" class="node">
<title>src/app/house.service.spec.ts</title>
<g id="a_node28"><a xlink:href="src/app/house.service.spec.ts" xlink:title="house.service.spec.ts">
<path fill="#ddfeff" stroke="#000000" d="M251.9074,-70.5C251.9074,-70.5 161.1556,-70.5 161.1556,-70.5 158.3223,-70.5 155.489,-67.6667 155.489,-64.8333 155.489,-64.8333 155.489,-59.1667 155.489,-59.1667 155.489,-56.3333 158.3223,-53.5 161.1556,-53.5 161.1556,-53.5 251.9074,-53.5 251.9074,-53.5 254.7407,-53.5 257.574,-56.3333 257.574,-59.1667 257.574,-59.1667 257.574,-64.8333 257.574,-64.8333 257.574,-67.6667 254.7407,-70.5 251.9074,-70.5"/>
<text text-anchor="middle" x="206.5315" y="-59.3" font-family="Helvetica,sans-Serif" font-size="9.00" fill="#000000">house.service.spec.ts</text>
</a>
</g>
</g>
<!-- src/app/house.service.ts -->
<g id="node29" class="node">
<title>src/app/house.service.ts</title>
<g id="a_node29"><a xlink:href="src/app/house.service.ts" xlink:title="house.service.ts">
<path fill="#ddfeff" stroke="#000000" d="M399.9664,-70.5C399.9664,-70.5 330.2392,-70.5 330.2392,-70.5 327.4058,-70.5 324.5725,-67.6667 324.5725,-64.8333 324.5725,-64.8333 324.5725,-59.1667 324.5725,-59.1667 324.5725,-56.3333 327.4058,-53.5 330.2392,-53.5 330.2392,-53.5 399.9664,-53.5 399.9664,-53.5 402.7997,-53.5 405.6331,-56.3333 405.6331,-59.1667 405.6331,-59.1667 405.6331,-64.8333 405.6331,-64.8333 405.6331,-67.6667 402.7997,-70.5 399.9664,-70.5"/>
<text text-anchor="middle" x="365.1028" y="-59.3" font-family="Helvetica,sans-Serif" font-size="9.00" fill="#000000">house.service.ts</text>
</a>
</g>
</g>
<!-- src/app/house.service.spec.ts&#45;&gt;src/app/house.service.ts -->
<g id="edge33" class="edge">
<title>src/app/house.service.spec.ts&#45;&gt;src/app/house.service.ts</title>
<path fill="none" stroke="#000000" stroke-width="2" stroke-opacity="0.200000" d="M257.5773,-62C277.0182,-62 299.0648,-62 318.1121,-62"/>
<polygon fill="#000000" fill-opacity="0.200000" stroke="#000000" stroke-width="2" stroke-opacity="0.200000" points="318.4486,-64.1001 324.4485,-62 318.4485,-59.9001 318.4486,-64.1001"/>
</g>
<!-- src/app/housedetail/housedetail.component.spec.ts -->
<g id="node30" class="node">
<title>src/app/housedetail/housedetail.component.spec.ts</title>
<g id="a_node30"><a xlink:href="src/app/housedetail/housedetail.component.spec.ts" xlink:title="housedetail.component.spec.ts">
<path fill="#ddfeff" stroke="#000000" d="M429.5157,-609.5C429.5157,-609.5 300.6898,-609.5 300.6898,-609.5 297.8565,-609.5 295.0232,-606.6667 295.0232,-603.8333 295.0232,-603.8333 295.0232,-598.1667 295.0232,-598.1667 295.0232,-595.3333 297.8565,-592.5 300.6898,-592.5 300.6898,-592.5 429.5157,-592.5 429.5157,-592.5 432.3491,-592.5 435.1824,-595.3333 435.1824,-598.1667 435.1824,-598.1667 435.1824,-603.8333 435.1824,-603.8333 435.1824,-606.6667 432.3491,-609.5 429.5157,-609.5"/>
<text text-anchor="middle" x="365.1028" y="-598.3" font-family="Helvetica,sans-Serif" font-size="9.00" fill="#000000">housedetail.component.spec.ts</text>
</a>
</g>
</g>
<!-- src/app/housedetail/housedetail.component.spec.ts&#45;&gt;src/app/housedetail/housedetail.component.ts -->
<g id="edge34" class="edge">
<title>src/app/housedetail/housedetail.component.spec.ts&#45;&gt;src/app/housedetail/housedetail.component.ts</title>
<path fill="none" stroke="#000000" stroke-width="2" stroke-opacity="0.200000" d="M435.3046,-601C440.1319,-601 444.986,-601 449.7866,-601"/>
<polygon fill="#000000" fill-opacity="0.200000" stroke="#000000" stroke-width="2" stroke-opacity="0.200000" points="449.8326,-603.1001 455.8326,-601 449.8325,-598.9001 449.8326,-603.1001"/>
</g>
<!-- src/app/status.service.spec.ts -->
<g id="node31" class="node">
<title>src/app/status.service.spec.ts</title>
<g id="a_node31"><a xlink:href="src/app/status.service.spec.ts" xlink:title="status.service.spec.ts">
<path fill="#ddfeff" stroke="#000000" d="M251.8966,-41.5C251.8966,-41.5 161.1664,-41.5 161.1664,-41.5 158.3331,-41.5 155.4998,-38.6667 155.4998,-35.8333 155.4998,-35.8333 155.4998,-30.1667 155.4998,-30.1667 155.4998,-27.3333 158.3331,-24.5 161.1664,-24.5 161.1664,-24.5 251.8966,-24.5 251.8966,-24.5 254.7299,-24.5 257.5632,-27.3333 257.5632,-30.1667 257.5632,-30.1667 257.5632,-35.8333 257.5632,-35.8333 257.5632,-38.6667 254.7299,-41.5 251.8966,-41.5"/>
<text text-anchor="middle" x="206.5315" y="-30.3" font-family="Helvetica,sans-Serif" font-size="9.00" fill="#000000">status.service.spec.ts</text>
</a>
</g>
</g>
<!-- src/app/status.service.ts -->
<g id="node32" class="node">
<title>src/app/status.service.ts</title>
<g id="a_node32"><a xlink:href="src/app/status.service.ts" xlink:title="status.service.ts">
<path fill="#ddfeff" stroke="#000000" d="M399.458,-41.5C399.458,-41.5 330.7475,-41.5 330.7475,-41.5 327.9142,-41.5 325.0809,-38.6667 325.0809,-35.8333 325.0809,-35.8333 325.0809,-30.1667 325.0809,-30.1667 325.0809,-27.3333 327.9142,-24.5 330.7475,-24.5 330.7475,-24.5 399.458,-24.5 399.458,-24.5 402.2914,-24.5 405.1247,-27.3333 405.1247,-30.1667 405.1247,-30.1667 405.1247,-35.8333 405.1247,-35.8333 405.1247,-38.6667 402.2914,-41.5 399.458,-41.5"/>
<text text-anchor="middle" x="365.1028" y="-30.3" font-family="Helvetica,sans-Serif" font-size="9.00" fill="#000000">status.service.ts</text>
</a>
</g>
</g>
<!-- src/app/status.service.spec.ts&#45;&gt;src/app/status.service.ts -->
<g id="edge35" class="edge">
<title>src/app/status.service.spec.ts&#45;&gt;src/app/status.service.ts</title>
<path fill="none" stroke="#000000" stroke-width="2" stroke-opacity="0.200000" d="M257.5773,-33C277.2661,-33 299.6275,-33 318.8393,-33"/>
<polygon fill="#000000" fill-opacity="0.200000" stroke="#000000" stroke-width="2" stroke-opacity="0.200000" points="318.9589,-35.1001 324.9589,-33 318.9588,-30.9001 318.9589,-35.1001"/>
</g>
<!-- src/app/token&#45;interceptor.service.spec.ts -->
<g id="node33" class="node">
<title>src/app/token&#45;interceptor.service.spec.ts</title>
<g id="a_node33"><a xlink:href="src/app/token-interceptor.service.spec.ts" xlink:title="token&#45;interceptor.service.spec.ts">
<path fill="#ddfeff" stroke="#000000" d="M273.4278,-171.5C273.4278,-171.5 139.6352,-171.5 139.6352,-171.5 136.8018,-171.5 133.9685,-168.6667 133.9685,-165.8333 133.9685,-165.8333 133.9685,-160.1667 133.9685,-160.1667 133.9685,-157.3333 136.8018,-154.5 139.6352,-154.5 139.6352,-154.5 273.4278,-154.5 273.4278,-154.5 276.2612,-154.5 279.0945,-157.3333 279.0945,-160.1667 279.0945,-160.1667 279.0945,-165.8333 279.0945,-165.8333 279.0945,-168.6667 276.2612,-171.5 273.4278,-171.5"/>
<text text-anchor="middle" x="206.5315" y="-160.3" font-family="Helvetica,sans-Serif" font-size="9.00" fill="#000000">token&#45;interceptor.service.spec.ts</text>
</a>
</g>
</g>
<!-- src/app/token&#45;interceptor.service.spec.ts&#45;&gt;src/app/token&#45;interceptor.service.ts -->
<g id="edge36" class="edge">
<title>src/app/token&#45;interceptor.service.spec.ts&#45;&gt;src/app/token&#45;interceptor.service.ts</title>
<path fill="none" stroke="#000000" stroke-width="2" stroke-opacity="0.200000" d="M279.3197,-156.5736C285.1792,-156.0563 291.0864,-155.5348 296.912,-155.0204"/>
<polygon fill="#000000" fill-opacity="0.200000" stroke="#000000" stroke-width="2" stroke-opacity="0.200000" points="297.4033,-157.0853 303.1954,-154.4657 297.0339,-152.9016 297.4033,-157.0853"/>
</g>
<!-- src/app/userprofile/userprofile.component.spec.ts -->
<g id="node34" class="node">
<title>src/app/userprofile/userprofile.component.spec.ts</title>
<g id="a_node34"><a xlink:href="src/app/userprofile/userprofile.component.spec.ts" xlink:title="userprofile.component.spec.ts">
<path fill="#ddfeff" stroke="#000000" d="M427.4991,-727.5C427.4991,-727.5 302.7064,-727.5 302.7064,-727.5 299.8731,-727.5 297.0398,-724.6667 297.0398,-721.8333 297.0398,-721.8333 297.0398,-716.1667 297.0398,-716.1667 297.0398,-713.3333 299.8731,-710.5 302.7064,-710.5 302.7064,-710.5 427.4991,-710.5 427.4991,-710.5 430.3325,-710.5 433.1658,-713.3333 433.1658,-716.1667 433.1658,-716.1667 433.1658,-721.8333 433.1658,-721.8333 433.1658,-724.6667 430.3325,-727.5 427.4991,-727.5"/>
<text text-anchor="middle" x="365.1028" y="-716.3" font-family="Helvetica,sans-Serif" font-size="9.00" fill="#000000">userprofile.component.spec.ts</text>
</a>
</g>
</g>
<!-- src/app/userprofile/userprofile.component.spec.ts&#45;&gt;src/app/userprofile/userprofile.component.ts -->
<g id="edge38" class="edge">
<title>src/app/userprofile/userprofile.component.spec.ts&#45;&gt;src/app/userprofile/userprofile.component.ts</title>
<path fill="none" stroke="#000000" stroke-width="2" stroke-opacity="0.200000" d="M433.5505,-719C439.6961,-719 445.9012,-719 451.999,-719"/>
<polygon fill="#000000" fill-opacity="0.200000" stroke="#000000" stroke-width="2" stroke-opacity="0.200000" points="452.0549,-721.1001 458.0549,-719 452.0548,-716.9001 452.0549,-721.1001"/>
</g>
<!-- src/assets/sal.js/dist/sal.js -->
<g id="node35" class="node">
<title>src/assets/sal.js/dist/sal.js</title>
<g id="a_node35"><a xlink:href="src/assets/sal.js/dist/sal.js" xlink:title="sal.js">
<path fill="#ccffcc" stroke="#000000" d="M88.3333,-793.5C88.3333,-793.5 45.6667,-793.5 45.6667,-793.5 42.8333,-793.5 40,-790.6667 40,-787.8333 40,-787.8333 40,-782.1667 40,-782.1667 40,-779.3333 42.8333,-776.5 45.6667,-776.5 45.6667,-776.5 88.3333,-776.5 88.3333,-776.5 91.1667,-776.5 94,-779.3333 94,-782.1667 94,-782.1667 94,-787.8333 94,-787.8333 94,-790.6667 91.1667,-793.5 88.3333,-793.5"/>
<text text-anchor="middle" x="67" y="-782.3" font-family="Helvetica,sans-Serif" font-size="9.00" fill="#000000">sal.js</text>
</a>
</g>
</g>
<!-- src/assets/sal.js/index.d.ts -->
<g id="node36" class="node">
<title>src/assets/sal.js/index.d.ts</title>
<g id="a_node36"><a xlink:href="src/assets/sal.js/index.d.ts" xlink:title="index.d.ts">
<path fill="#ccffcc" stroke="#000000" d="M88.3579,-759.5C88.3579,-759.5 45.6421,-759.5 45.6421,-759.5 42.8088,-759.5 39.9755,-756.6667 39.9755,-753.8333 39.9755,-753.8333 39.9755,-748.1667 39.9755,-748.1667 39.9755,-745.3333 42.8088,-742.5 45.6421,-742.5 45.6421,-742.5 88.3579,-742.5 88.3579,-742.5 91.1912,-742.5 94.0245,-745.3333 94.0245,-748.1667 94.0245,-748.1667 94.0245,-753.8333 94.0245,-753.8333 94.0245,-756.6667 91.1912,-759.5 88.3579,-759.5"/>
<text text-anchor="middle" x="67" y="-748.3" font-family="Helvetica,sans-Serif" font-size="9.00" fill="#000000">index.d.ts</text>
</a>
</g>
</g>
<!-- src/assets/scripts/myscript.js -->
<g id="node37" class="node">
<title>src/assets/scripts/myscript.js</title>
<g id="a_node37"><a xlink:href="src/assets/scripts/myscript.js" xlink:title="myscript.js">
<path fill="#ccffcc" stroke="#000000" d="M90.835,-700.5C90.835,-700.5 43.165,-700.5 43.165,-700.5 40.3317,-700.5 37.4983,-697.6667 37.4983,-694.8333 37.4983,-694.8333 37.4983,-689.1667 37.4983,-689.1667 37.4983,-686.3333 40.3317,-683.5 43.165,-683.5 43.165,-683.5 90.835,-683.5 90.835,-683.5 93.6683,-683.5 96.5017,-686.3333 96.5017,-689.1667 96.5017,-689.1667 96.5017,-694.8333 96.5017,-694.8333 96.5017,-697.6667 93.6683,-700.5 90.835,-700.5"/>
<text text-anchor="middle" x="67" y="-689.3" font-family="Helvetica,sans-Serif" font-size="9.00" fill="#000000">myscript.js</text>
</a>
</g>
</g>
<!-- src/environments/environment.prod.ts -->
<g id="node38" class="node">
<title>src/environments/environment.prod.ts</title>
<g id="a_node38"><a xlink:href="src/environments/environment.prod.ts" xlink:title="environment.prod.ts">
<path fill="#ccffcc" stroke="#000000" d="M248.4069,-958.5C248.4069,-958.5 164.656,-958.5 164.656,-958.5 161.8227,-958.5 158.9894,-955.6667 158.9894,-952.8333 158.9894,-952.8333 158.9894,-947.1667 158.9894,-947.1667 158.9894,-944.3333 161.8227,-941.5 164.656,-941.5 164.656,-941.5 248.4069,-941.5 248.4069,-941.5 251.2403,-941.5 254.0736,-944.3333 254.0736,-947.1667 254.0736,-947.1667 254.0736,-952.8333 254.0736,-952.8333 254.0736,-955.6667 251.2403,-958.5 248.4069,-958.5"/>
<text text-anchor="middle" x="206.5315" y="-947.3" font-family="Helvetica,sans-Serif" font-size="9.00" fill="#000000">environment.prod.ts</text>
</a>
</g>
</g>
<!-- src/environments/environment.ts -->
<g id="node39" class="node">
<title>src/environments/environment.ts</title>
<g id="a_node39"><a xlink:href="src/environments/environment.ts" xlink:title="environment.ts">
<path fill="#ddfeff" stroke="#000000" d="M238.3922,-929.5C238.3922,-929.5 174.6708,-929.5 174.6708,-929.5 171.8375,-929.5 169.0041,-926.6667 169.0041,-923.8333 169.0041,-923.8333 169.0041,-918.1667 169.0041,-918.1667 169.0041,-915.3333 171.8375,-912.5 174.6708,-912.5 174.6708,-912.5 238.3922,-912.5 238.3922,-912.5 241.2255,-912.5 244.0588,-915.3333 244.0588,-918.1667 244.0588,-918.1667 244.0588,-923.8333 244.0588,-923.8333 244.0588,-926.6667 241.2255,-929.5 238.3922,-929.5"/>
<text text-anchor="middle" x="206.5315" y="-918.3" font-family="Helvetica,sans-Serif" font-size="9.00" fill="#000000">environment.ts</text>
</a>
</g>
</g>
<!-- src/main.ts -->
<g id="node40" class="node">
<title>src/main.ts</title>
<g id="a_node40"><a xlink:href="src/main.ts" xlink:title="main.ts">
<path fill="#ddfeff" stroke="#000000" d="M88.3333,-430.5C88.3333,-430.5 45.6667,-430.5 45.6667,-430.5 42.8333,-430.5 40,-427.6667 40,-424.8333 40,-424.8333 40,-419.1667 40,-419.1667 40,-416.3333 42.8333,-413.5 45.6667,-413.5 45.6667,-413.5 88.3333,-413.5 88.3333,-413.5 91.1667,-413.5 94,-416.3333 94,-419.1667 94,-419.1667 94,-424.8333 94,-424.8333 94,-427.6667 91.1667,-430.5 88.3333,-430.5"/>
<text text-anchor="middle" x="67" y="-419.3" font-family="Helvetica,sans-Serif" font-size="9.00" fill="#000000">main.ts</text>
</a>
</g>
</g>
<!-- src/main.ts&#45;&gt;src/app/app.module.ts -->
<g id="edge39" class="edge">
<title>src/main.ts&#45;&gt;src/app/app.module.ts</title>
<path fill="none" stroke="#000000" stroke-width="2" stroke-opacity="0.200000" d="M77.4875,-413.4315C101.8307,-393.5426 162.2729,-344.1602 190.9526,-320.7283"/>
<polygon fill="#000000" fill-opacity="0.200000" stroke="#000000" stroke-width="2" stroke-opacity="0.200000" points="192.6045,-322.0904 195.9223,-316.668 189.9472,-318.8379 192.6045,-322.0904"/>
</g>
<!-- src/main.ts&#45;&gt;src/environments/environment.ts -->
<g id="edge40" class="edge">
<title>src/main.ts&#45;&gt;src/environments/environment.ts</title>
<path fill="none" stroke="#000000" stroke-width="2" stroke-opacity="0.200000" d="M69.2846,-430.5513C77.6353,-462.2422 106.6092,-576.1074 118,-672 119.4885,-684.5308 118.167,-889.1064 126,-899 134.8953,-910.2354 148.9326,-916.0737 162.8128,-919.008"/>
<polygon fill="#000000" fill-opacity="0.200000" stroke="#000000" stroke-width="2" stroke-opacity="0.200000" points="162.4559,-921.0775 168.7365,-920.095 163.2141,-916.9465 162.4559,-921.0775"/>
</g>
<!-- src/polyfills.ts -->
<g id="node41" class="node">
<title>src/polyfills.ts</title>
<g id="a_node41"><a xlink:href="src/polyfills.ts" xlink:title="polyfills.ts">
<path fill="#ccffcc" stroke="#000000" d="M88.8436,-345.5C88.8436,-345.5 45.1564,-345.5 45.1564,-345.5 42.3231,-345.5 39.4897,-342.6667 39.4897,-339.8333 39.4897,-339.8333 39.4897,-334.1667 39.4897,-334.1667 39.4897,-331.3333 42.3231,-328.5 45.1564,-328.5 45.1564,-328.5 88.8436,-328.5 88.8436,-328.5 91.6769,-328.5 94.5103,-331.3333 94.5103,-334.1667 94.5103,-334.1667 94.5103,-339.8333 94.5103,-339.8333 94.5103,-342.6667 91.6769,-345.5 88.8436,-345.5"/>
<text text-anchor="middle" x="67" y="-334.3" font-family="Helvetica,sans-Serif" font-size="9.00" fill="#000000">polyfills.ts</text>
</a>
</g>
</g>
<!-- src/test.ts -->
<g id="node42" class="node">
<title>src/test.ts</title>
<g id="a_node42"><a xlink:href="src/test.ts" xlink:title="test.ts">
<path fill="#ccffcc" stroke="#000000" d="M88.3333,-204.5C88.3333,-204.5 45.6667,-204.5 45.6667,-204.5 42.8333,-204.5 40,-201.6667 40,-198.8333 40,-198.8333 40,-193.1667 40,-193.1667 40,-190.3333 42.8333,-187.5 45.6667,-187.5 45.6667,-187.5 88.3333,-187.5 88.3333,-187.5 91.1667,-187.5 94,-190.3333 94,-193.1667 94,-193.1667 94,-198.8333 94,-198.8333 94,-201.6667 91.1667,-204.5 88.3333,-204.5"/>
<text text-anchor="middle" x="67" y="-193.3" font-family="Helvetica,sans-Serif" font-size="9.00" fill="#000000">test.ts</text>
</a>
</g>
</g>
</g>
</svg>
