<?xml version="1.0" encoding="UTF-8" standalone="no"?>
<!-- Created with Inkscape (http://www.inkscape.org/) -->

<svg
   xmlns:dc="http://purl.org/dc/elements/1.1/"
   xmlns:cc="http://creativecommons.org/ns#"
   xmlns:rdf="http://www.w3.org/1999/02/22-rdf-syntax-ns#"
   xmlns:svg="http://www.w3.org/2000/svg"
   xmlns="http://www.w3.org/2000/svg"
   xmlns:sodipodi="http://sodipodi.sourceforge.net/DTD/sodipodi-0.dtd"
   xmlns:inkscape="http://www.inkscape.org/namespaces/inkscape"
   width="1900px"
   height="505px"
   viewBox="0 0 1900 505"
   version="1.1"
   id="SVGRoot"
   inkscape:version="0.92.4 (5da689c313, 2019-01-14)"
   sodipodi:docname="logo-final.svg">
  <defs
     id="defs1459" />
  <sodipodi:namedview
     id="base"
     pagecolor="#ffffff"
     bordercolor="#666666"
     borderopacity="1.0"
     inkscape:pageopacity="0.0"
     inkscape:pageshadow="2"
     inkscape:zoom="0.49497475"
     inkscape:cx="841.62992"
     inkscape:cy="196.19887"
     inkscape:document-units="px"
     inkscape:current-layer="layer1"
     showgrid="false"
     inkscape:window-width="1920"
     inkscape:window-height="1003"
     inkscape:window-x="-9"
     inkscape:window-y="-9"
     inkscape:window-maximized="1" />
  <metadata
     id="metadata1462">
    <rdf:RDF>
      <cc:Work
         rdf:about="">
        <dc:format>image/svg+xml</dc:format>
        <dc:type
           rdf:resource="http://purl.org/dc/dcmitype/StillImage" />
        <dc:title></dc:title>
      </cc:Work>
    </rdf:RDF>
  </metadata>
  <g
     inkscape:label="Layer 1"
     inkscape:groupmode="layer"
     id="layer1">
    <g
       transform="translate(-5.4744957,-143.57143)"
       id="g2176">
      <g
         transform="translate(-4,-8)"
         id="g3662">
        <path
           style="fill:#9a86f9;fill-opacity:1;stroke:none;stroke-width:0.94958913px;stroke-linecap:butt;stroke-linejoin:miter;stroke-opacity:1"
           d="M 546.90606,244.39888 394.2857,153.03497 241.66533,244.39888 394.2857,335.76279 546.90606,244.39888"
           id="path2045"
           inkscape:connector-curvature="0" />
        <path
           style="fill:#ac9bfa;fill-opacity:1;stroke:none;stroke-width:0.94958913px;stroke-linecap:butt;stroke-linejoin:miter;stroke-opacity:1"
           d="m 394.2857,335.76279 v 182.7278 l 152.62036,-91.3639 V 244.39888 Z"
           id="path2047"
           inkscape:connector-curvature="0" />
        <path
           style="fill:#8369ff;fill-opacity:1;stroke:none;stroke-width:0.94958913px;stroke-linecap:butt;stroke-linejoin:miter;stroke-opacity:1"
           d="M 394.28569,335.76279 241.66532,244.39888 v 182.72781 l 152.62037,91.3639 v -182.7278"
           id="path2049"
           inkscape:connector-curvature="0" />
        <path
           style="fill:#ffd633;fill-opacity:1;stroke:none;stroke-width:0.94958913px;stroke-linecap:butt;stroke-linejoin:miter;stroke-opacity:1"
           d="m 775.83665,381.44475 -152.62037,-91.3639 -152.62036,91.3639 152.62036,91.36391 152.62037,-91.36391"
           id="path1998"
           inkscape:connector-curvature="0" />
        <path
           style="fill:#ffe478;fill-opacity:1;stroke:none;stroke-width:0.94958913px;stroke-linecap:butt;stroke-linejoin:miter;stroke-opacity:1"
           d="m 623.21628,472.80866 v 182.72781 l 152.62037,-91.3639 V 381.44475 Z"
           id="path2000"
           inkscape:connector-curvature="0" />
        <path
           style="fill:#f2d300;fill-opacity:1;stroke:none;stroke-width:0.94958913px;stroke-linecap:butt;stroke-linejoin:miter;stroke-opacity:1"
           d="M 623.21628,472.80866 470.59592,381.44475 v 182.72782 l 152.62036,91.3639 V 472.80866"
           id="path2002"
           inkscape:connector-curvature="0" />
        <path
           inkscape:connector-curvature="0"
           id="path2018"
           d="M 12.734779,381.44473 165.35515,290.08083 317.97551,381.44473 165.35515,472.80864 12.734779,381.44473"
           style="fill:#ff2a7f;stroke:none;stroke-width:0.94958913px;stroke-linecap:butt;stroke-linejoin:miter;stroke-opacity:1" />
        <path
           inkscape:connector-curvature="0"
           id="path2020"
           d="M 165.35515,472.80864 V 655.53645 L 12.734779,564.17255 V 381.44473 Z"
           style="fill:#d40055;stroke:none;stroke-width:0.94958913px;stroke-linecap:butt;stroke-linejoin:miter;stroke-opacity:1" />
        <path
           inkscape:connector-curvature="0"
           id="path2022"
           d="m 165.35515,472.80864 152.62036,-91.36391 v 182.72782 l -152.62036,91.3639 V 472.80864"
           style="fill:#ff80b2;stroke:none;stroke-width:0.94958913px;stroke-linecap:butt;stroke-linejoin:miter;stroke-opacity:1" />
        <path
           inkscape:connector-curvature="0"
           id="path2163"
           d="M 546.90606,244.39888 394.2857,153.03497 241.66533,244.39888 394.2857,335.76279 546.90606,244.39888"
           style="fill:#9a86f9;fill-opacity:1;stroke:none;stroke-width:0.94958913px;stroke-linecap:butt;stroke-linejoin:miter;stroke-opacity:1" />
        <path
           inkscape:connector-curvature="0"
           id="path2165"
           d="m 394.2857,335.76279 v 182.7278 l 152.62036,-91.3639 V 244.39888 Z"
           style="fill:#ac9bfa;fill-opacity:1;stroke:none;stroke-width:0.94958913px;stroke-linecap:butt;stroke-linejoin:miter;stroke-opacity:1" />
        <path
           inkscape:connector-curvature="0"
           id="path2167"
           d="M 394.28569,335.76279 241.66532,244.39888 v 182.72781 l 152.62037,91.3639 v -182.7278"
           style="fill:#8369ff;fill-opacity:1;stroke:none;stroke-width:0.94958913px;stroke-linecap:butt;stroke-linejoin:miter;stroke-opacity:1" />
        <path
           inkscape:connector-curvature="0"
           id="path2169"
           d="m 775.83665,381.44475 -152.62037,-91.3639 -152.62036,91.3639 152.62036,91.36391 152.62037,-91.36391"
           style="fill:#00f78f;fill-opacity:1;stroke:none;stroke-width:0.94958913px;stroke-linecap:butt;stroke-linejoin:miter;stroke-opacity:1" />
        <path
           inkscape:connector-curvature="0"
           id="path2171"
           d="m 623.21628,472.80866 v 182.72781 l 152.62037,-91.3639 V 381.44475 Z"
           style="fill:#54ffb7;fill-opacity:1;stroke:none;stroke-width:0.94958913px;stroke-linecap:butt;stroke-linejoin:miter;stroke-opacity:1" />
        <path
           inkscape:connector-curvature="0"
           id="path2173"
           d="M 623.21628,472.80866 470.59592,381.44475 v 182.72782 l 152.62036,91.3639 V 472.80866"
           style="fill:#00c974;fill-opacity:1;stroke:none;stroke-width:0.94958913px;stroke-linecap:butt;stroke-linejoin:miter;stroke-opacity:1" />
        <path
           style="fill:#ff2a7f;stroke:none;stroke-width:0.94958913px;stroke-linecap:butt;stroke-linejoin:miter;stroke-opacity:1"
           d="M 12.734779,381.44473 165.35515,290.08083 317.97551,381.44473 165.35515,472.80864 12.734779,381.44473"
           id="path2175"
           inkscape:connector-curvature="0" />
        <path
           style="fill:#d40055;stroke:none;stroke-width:0.94958913px;stroke-linecap:butt;stroke-linejoin:miter;stroke-opacity:1"
           d="M 165.35515,472.80864 V 655.53645 L 12.734779,564.17255 V 381.44473 Z"
           id="path2177"
           inkscape:connector-curvature="0" />
        <path
           style="fill:#ff80b2;stroke:none;stroke-width:0.94958913px;stroke-linecap:butt;stroke-linejoin:miter;stroke-opacity:1"
           d="m 165.35515,472.80864 152.62036,-91.36391 v 182.72782 l -152.62036,91.3639 V 472.80864"
           id="path2179"
           inkscape:connector-curvature="0" />
        <path
           inkscape:connector-curvature="0"
           id="path2760"
           d="M 546.90606,244.39888 394.2857,153.03497 241.66533,244.39888 394.2857,335.76279 546.90606,244.39888"
           style="fill:#9a86f9;fill-opacity:1;stroke:none;stroke-width:0.94958913px;stroke-linecap:butt;stroke-linejoin:miter;stroke-opacity:1" />
        <path
           inkscape:connector-curvature="0"
           id="path2762"
           d="m 394.2857,335.76279 v 182.7278 l 152.62036,-91.3639 V 244.39888 Z"
           style="fill:#ac9bfa;fill-opacity:1;stroke:none;stroke-width:0.94958913px;stroke-linecap:butt;stroke-linejoin:miter;stroke-opacity:1" />
        <path
           inkscape:connector-curvature="0"
           id="path2764"
           d="M 394.28569,335.76279 241.66532,244.39888 v 182.72781 l 152.62037,91.3639 v -182.7278"
           style="fill:#8369ff;fill-opacity:1;stroke:none;stroke-width:0.94958913px;stroke-linecap:butt;stroke-linejoin:miter;stroke-opacity:1" />
        <path
           inkscape:connector-curvature="0"
           id="path2766"
           d="m 775.83665,381.44475 -152.62037,-91.3639 -152.62036,91.3639 152.62036,91.36391 152.62037,-91.36391"
           style="fill:#ffd633;fill-opacity:1;stroke:none;stroke-width:0.94958913px;stroke-linecap:butt;stroke-linejoin:miter;stroke-opacity:1" />
        <path
           inkscape:connector-curvature="0"
           id="path2768"
           d="m 623.21628,472.80866 v 182.72781 l 152.62037,-91.3639 V 381.44475 Z"
           style="fill:#ffe478;fill-opacity:1;stroke:none;stroke-width:0.94958913px;stroke-linecap:butt;stroke-linejoin:miter;stroke-opacity:1" />
        <path
           inkscape:connector-curvature="0"
           id="path2770"
           d="M 623.21628,472.80866 470.59592,381.44475 v 182.72782 l 152.62036,91.3639 V 472.80866"
           style="fill:#f2d300;fill-opacity:1;stroke:none;stroke-width:0.94958913px;stroke-linecap:butt;stroke-linejoin:miter;stroke-opacity:1" />
        <path
           style="fill:#ff2a7f;stroke:none;stroke-width:0.94958913px;stroke-linecap:butt;stroke-linejoin:miter;stroke-opacity:1"
           d="M 12.734779,381.44473 165.35515,290.08083 317.97551,381.44473 165.35515,472.80864 12.734779,381.44473"
           id="path2772"
           inkscape:connector-curvature="0" />
        <path
           style="fill:#d40055;stroke:none;stroke-width:0.94958913px;stroke-linecap:butt;stroke-linejoin:miter;stroke-opacity:1"
           d="M 165.35515,472.80864 V 655.53645 L 12.734779,564.17255 V 381.44473 Z"
           id="path2774"
           inkscape:connector-curvature="0" />
        <path
           style="fill:#ff80b2;stroke:none;stroke-width:0.94958913px;stroke-linecap:butt;stroke-linejoin:miter;stroke-opacity:1"
           d="m 165.35515,472.80864 152.62036,-91.36391 v 182.72782 l -152.62036,91.3639 V 472.80864"
           id="path2776"
           inkscape:connector-curvature="0" />
        <path
           style="fill:#9a86f9;fill-opacity:1;stroke:none;stroke-width:0.94958913px;stroke-linecap:butt;stroke-linejoin:miter;stroke-opacity:1"
           d="M 546.90606,244.39888 394.2857,153.03497 241.66533,244.39888 394.2857,335.76279 546.90606,244.39888"
           id="path2778"
           inkscape:connector-curvature="0" />
        <path
           style="fill:#ac9bfa;fill-opacity:1;stroke:none;stroke-width:0.94958913px;stroke-linecap:butt;stroke-linejoin:miter;stroke-opacity:1"
           d="m 394.2857,335.76279 v 182.7278 l 152.62036,-91.3639 V 244.39888 Z"
           id="path2780"
           inkscape:connector-curvature="0" />
        <path
           style="fill:#8369ff;fill-opacity:1;stroke:none;stroke-width:0.94958913px;stroke-linecap:butt;stroke-linejoin:miter;stroke-opacity:1"
           d="M 394.28569,335.76279 241.66532,244.39888 v 182.72781 l 152.62037,91.3639 v -182.7278"
           id="path2782"
           inkscape:connector-curvature="0" />
        <path
           style="fill:#00f78f;fill-opacity:1;stroke:none;stroke-width:0.94958913px;stroke-linecap:butt;stroke-linejoin:miter;stroke-opacity:1"
           d="m 775.83665,381.44475 -152.62037,-91.3639 -152.62036,91.3639 152.62036,91.36391 152.62037,-91.36391"
           id="path2784"
           inkscape:connector-curvature="0" />
        <path
           style="fill:#54ffb7;fill-opacity:1;stroke:none;stroke-width:0.94958913px;stroke-linecap:butt;stroke-linejoin:miter;stroke-opacity:1"
           d="m 623.21628,472.80866 v 182.72781 l 152.62037,-91.3639 V 381.44475 Z"
           id="path2786"
           inkscape:connector-curvature="0" />
        <path
           style="fill:#00c974;fill-opacity:1;stroke:none;stroke-width:0.94958913px;stroke-linecap:butt;stroke-linejoin:miter;stroke-opacity:1"
           d="M 623.21628,472.80866 470.59592,381.44475 v 182.72782 l 152.62036,91.3639 V 472.80866"
           id="path2788"
           inkscape:connector-curvature="0" />
        <path
           inkscape:connector-curvature="0"
           id="path2790"
           d="M 12.734779,381.44473 165.35515,290.08083 317.97551,381.44473 165.35515,472.80864 12.734779,381.44473"
           style="fill:#ff2a7f;stroke:none;stroke-width:0.94958913px;stroke-linecap:butt;stroke-linejoin:miter;stroke-opacity:1" />
        <path
           inkscape:connector-curvature="0"
           id="path2792"
           d="M 165.35515,472.80864 V 655.53645 L 12.734779,564.17255 V 381.44473 Z"
           style="fill:#d40055;stroke:none;stroke-width:0.94958913px;stroke-linecap:butt;stroke-linejoin:miter;stroke-opacity:1" />
        <path
           inkscape:connector-curvature="0"
           id="path2794"
           d="m 165.35515,472.80864 152.62036,-91.36391 v 182.72782 l -152.62036,91.3639 V 472.80864"
           style="fill:#ff80b2;stroke:none;stroke-width:0.94958913px;stroke-linecap:butt;stroke-linejoin:miter;stroke-opacity:1" />
      </g>
      <g
         id="flowRoot3592"
         style="font-style:normal;font-variant:normal;font-weight:normal;font-stretch:normal;font-size:192px;line-height:1.25;font-family:'Trajan Pro 3';-inkscape-font-specification:'Trajan Pro 3, ';letter-spacing:0px;word-spacing:0px;fill:#000000;fill-opacity:1;stroke:none"
         transform="matrix(1.1235942,0,0,1.1360945,47.860575,51.079498)"
         aria-label="ealtor">
        <path
           inkscape:connector-curvature="0"
           id="path3685"
           style="font-style:normal;font-variant:normal;font-weight:normal;font-stretch:normal;font-size:192px;font-family:'Trajan Pro 3';-inkscape-font-specification:'Trajan Pro 3, '"
           d="m 951.01977,395.8727 c 0,14.592 -0.192,22.464 -0.384,28.992 -0.384,11.904 -2.688,14.4 -6.144,15.168 -1.344,0.384 -2.688,0.576 -3.84,0.576 -0.96,0 -1.728,0.576 -1.728,1.344 0,0.96 0.96,1.344 2.688,1.344 4.608,0 8.256,-0.576 12.672,-0.576 7.104,0 15.936,0.384 22.656,0.576 6.72,0 12.096,0.384 24.76803,0.384 6.336,0 7.68,-0.384 8.448,-4.224 0.576,-3.264 2.112,-15.36 2.112,-16.704 0,-1.152 0,-2.88 -1.152,-2.88 -0.768,0 -1.344,0.768 -1.728,2.688 -1.536,7.104 -2.88,10.944 -8.64,12.672 -4.80003,1.344 -10.94403,1.152 -14.59203,1.152 -6.528,0 -11.136,-0.384 -14.016,-1.728 -4.032,-1.728 -4.992,-5.376 -5.376,-12.48 -0.192,-3.264 0,-20.16 0,-26.112 v -14.016 c 0,-0.768 0.192,-1.344 1.344,-1.344 3.072,0 18.624,0.384 23.04,0.768 7.296,0.576 8.448,3.264 9.21603,5.76 0.384,1.536 0.576,3.456 0.576,4.608 0,1.344 0.192,2.496 1.152,2.496 0.768,0 1.152,-0.576 1.344,-2.112 0.192,-2.496 0.192,-6.336 0.768,-11.712 0.576,-5.568 1.344,-9.216 1.344,-10.176 0,-0.96 -0.384,-1.152 -0.768,-1.152 -0.768,0 -1.344,0.384 -2.112,1.536 -1.536,2.112 -4.41603,2.688 -8.83203,2.88 -4.032,0.384 -23.616,0.576 -25.92,0.576 -0.96,0 -1.152,-0.768 -1.152,-1.92 v -43.584 c 0,-1.152 0.384,-1.536 0.96,-1.536 0.384,0 19.392,0.192 21.888,0.384 9.6,0.576 11.32803,1.92 12.48003,5.76 0.576,1.344 1.152,3.264 1.344,6.144 0,1.344 0.384,2.112 1.344,2.112 0.96,0 1.344,-1.152 1.344,-2.88 0.192,-3.648 0.384,-6.72 0.576,-9.984 0.384,-4.8 1.536,-7.488 1.536,-8.64 0,-0.96 -0.384,-1.344 -0.768,-1.344 -0.768,0 -0.96,0.192 -2.112,0.576 -1.536,0.576 -3.648,0.768 -7.48803,0.96 -3.84,0.192 -38.016,0.192 -38.976,0.192 -10.752,-0.192 -15.936,-0.576 -19.776,-0.576 -1.92,0 -2.88,0.384 -2.88,1.536 0,0.576 1.152,1.152 2.496,1.152 1.536,0 3.456,0.192 4.608,0.384 5.568,1.152 6.912,3.84 7.296,9.216 0.384,5.184 0.384,9.792 0.384,34.944 z" />
        <path
           inkscape:connector-curvature="0"
           id="path3687"
           style="font-style:normal;font-variant:normal;font-weight:normal;font-stretch:normal;font-size:192px;font-family:'Trajan Pro 3';-inkscape-font-specification:'Trajan Pro 3, '"
           d="m 1102.7868,396.4487 c 0.768,0 1.152,0.384 1.536,0.96 l 15.168,38.592 c 1.152,2.88 0,3.84 -0.768,4.224 -0.768,0.192 -1.344,0.768 -1.344,1.344 0,0.96 1.152,1.152 4.8,1.344 12.864,0.384 27.264,0.384 29.184,0.384 2.112,0 2.88,-0.384 2.88,-1.344 0,-0.96 -0.96,-1.344 -2.304,-1.344 -1.344,0 -4.032,0 -6.528,-0.96 -2.688,-0.96 -8.256,-3.456 -14.592,-18.624 -10.176,-24 -36.288,-91.008 -38.976,-97.344 -2.112,-5.376 -2.88,-6.144 -3.84,-6.144 -1.344,0 -1.92,0.96 -4.032,6.528 l -38.4,101.184 c -3.264,8.064 -6.528,14.4 -14.784,15.168 -1.152,0.192 -2.88,0.192 -3.84,0.192 -1.536,0 -2.304,0.576 -2.304,1.344 0,0.96 0.96,1.344 3.072,1.344 8.064,0 16.512,-0.576 18.432,-0.576 2.112,0 10.944,0.576 15.168,0.576 1.344,0 2.88,-0.384 2.88,-1.344 0,-0.768 -0.576,-1.344 -2.304,-1.344 -0.576,0 -0.768,0 -1.344,0 -4.224,0 -6.336,-1.536 -6.336,-4.992 0,-3.072 1.344,-8.256 3.264,-13.632 l 8.448,-24 c 0.384,-0.96 0.96,-1.536 1.92,-1.536 z m -33.024,-6.72 c -0.384,0 -0.768,-0.384 -0.384,-1.152 l 14.4,-42.432 c 0.96,-2.688 1.152,-2.688 2.112,0 l 15.168,42.432 c 0.192,0.576 0.192,1.152 -0.576,1.152 z" />
        <path
           inkscape:connector-curvature="0"
           id="path3689"
           style="font-style:normal;font-variant:normal;font-weight:normal;font-stretch:normal;font-size:192px;font-family:'Trajan Pro 3';-inkscape-font-specification:'Trajan Pro 3, '"
           d="m 1193.2638,367.0727 c 0,-25.344 -0.192,-29.568 0.192,-34.752 0.384,-5.568 1.536,-8.64 6.912,-9.408 1.92,-0.192 3.84,-0.384 5.184,-0.384 1.152,0 2.112,-0.576 2.112,-1.344 0,-0.768 -0.576,-1.344 -2.496,-1.344 -5.376,0 -17.088,0.576 -19.776,0.576 -0.384,0 -11.904,-0.576 -19.968,-0.576 -1.92,0 -2.88,0.384 -2.88,1.344 0,0.768 0.768,1.344 2.112,1.344 1.536,0 3.648,0 4.8,0.192 6.528,0.768 7.296,4.224 7.68,9.6 0.384,5.184 0.384,9.408 0.384,34.752 v 28.8 c 0,14.784 0.384,28.032 -0.768,35.328 -0.576,4.608 -1.728,8.448 -4.992,9.024 -1.536,0.384 -3.072,0.384 -4.608,0.384 -1.536,0 -2.112,0.576 -2.112,1.152 0,1.152 1.152,1.536 3.072,1.536 6.72,0 10.56,-0.576 16.896,-0.576 19.2,0 33.6,0.96 46.656,0.96 9.216,0 9.024,-0.96 10.176,-4.8 1.152,-4.416 2.304,-15.36 2.304,-17.28 0,-1.92 -0.384,-2.496 -1.152,-2.496 -0.96,0 -1.344,0.768 -1.536,2.304 -0.384,2.88 -1.728,6.72 -3.648,9.6 -4.224,5.376 -11.904,5.376 -20.352,5.376 -13.248,0 -17.088,-1.152 -20.16,-3.84 -3.264,-3.072 -4.032,-14.208 -4.032,-36.288 z" />
        <path
           inkscape:connector-curvature="0"
           id="path3691"
           style="font-style:normal;font-variant:normal;font-weight:normal;font-stretch:normal;font-size:192px;font-family:'Trajan Pro 3';-inkscape-font-specification:'Trajan Pro 3, '"
           d="m 1306.0848,327.3287 c 5.568,0 11.52,0.192 18.816,0.192 19.392,0.192 21.888,2.112 22.656,9.792 0.192,1.92 0.192,2.112 0.192,2.688 0,1.536 0.384,2.304 1.344,2.304 0.576,0 1.344,-0.576 1.344,-2.304 0,-1.536 0.384,-14.208 0.384,-19.584 0,-0.768 -0.384,-1.728 -1.152,-1.728 -0.576,0 -1.152,0.192 -3.648,0.768 -2.688,0.576 -8.448,0.96 -13.824,0.96 h -62.976 c -0.192,0 -5.568,-0.192 -12.288,-0.96 -3.456,-0.384 -7.104,-2.112 -8.448,-2.112 -0.576,0 -1.152,0.768 -1.728,3.072 -1.152,5.184 -4.032,17.856 -3.84,19.008 0,0.96 0.192,1.728 0.96,1.728 0.768,0 1.152,-0.192 1.728,-1.536 0.384,-0.96 1.152,-3.264 2.88,-5.952 2.688,-4.032 5.376,-5.952 17.664,-6.144 7.68,-0.192 17.856,-0.192 24.192,-0.192 v 68.544 c 0,14.4 0,28.224 -0.768,35.136 -0.768,6.528 -1.344,8.832 -4.992,9.408 -1.536,0.192 -2.688,0.192 -4.224,0.192 -1.536,0 -2.112,0.768 -2.112,1.344 0,0.96 0.768,1.344 2.88,1.344 4.992,0 16.32,-0.576 17.088,-0.576 0.768,0 12.096,0.576 21.888,0.576 1.92,0 2.496,-0.576 2.496,-1.536 0,-0.576 -0.768,-1.152 -2.304,-1.152 -1.536,0 -5.184,-0.192 -7.488,-0.768 -4.8,-1.152 -5.184,-3.84 -5.76,-8.448 -0.768,-7.104 -0.96,-20.736 -0.96,-35.52 z" />
        <path
           inkscape:connector-curvature="0"
           id="path3693"
           style="font-style:normal;font-variant:normal;font-weight:normal;font-stretch:normal;font-size:192px;font-family:'Trajan Pro 3';-inkscape-font-specification:'Trajan Pro 3, '"
           d="m 1430.0598,445.4087 c 40.896,0 67.968,-29.952 67.968,-66.624 0,-38.592 -28.992,-61.248 -67.008,-61.248 -47.424,0 -67.2,38.208 -67.2,63.744 0,29.184 19.2,64.128 66.24,64.128 z m 4.8,-6.528 c -32.256,0 -53.184,-24.96 -53.184,-62.592 0,-36.288 21.504,-52.8 48.192,-52.8 26.304,0 50.112,21.504 50.112,60.096 0,48.768 -32.256,55.296 -45.12,55.296 z" />
        <path
           inkscape:connector-curvature="0"
           id="path3695"
           style="font-style:normal;font-variant:normal;font-weight:normal;font-stretch:normal;font-size:192px;font-family:'Trajan Pro 3';-inkscape-font-specification:'Trajan Pro 3, '"
           d="m 1536.9618,395.8727 c 0,14.4 0.192,30.144 -0.768,37.056 -0.576,4.608 -1.728,6.72 -4.992,7.296 -1.536,0.384 -2.88,0.384 -4.224,0.384 -1.152,0 -2.304,0.576 -2.304,1.152 0,1.152 0.768,1.536 2.688,1.536 5.184,0 13.632,-0.576 16.704,-0.576 0.768,0 11.52,0.576 21.504,0.576 1.92,0 2.688,-0.576 2.688,-1.536 0,-0.576 -0.768,-1.152 -2.496,-1.152 -1.536,0 -3.648,-0.192 -5.568,-0.384 -6.336,-0.768 -6.912,-4.608 -7.488,-9.216 -0.96,-6.912 -0.96,-20.928 -0.96,-36.288 v -2.688 c 0,-0.768 0.192,-0.96 0.96,-0.96 l 19.776,0.192 c 1.152,0 1.536,0.384 2.304,1.152 3.264,4.032 10.944,14.4 18.432,23.616 9.984,12.864 15.744,21.504 23.808,24.96 4.224,1.728 8.448,2.304 17.472,2.304 h 13.44 c 2.688,0 3.456,-0.384 3.456,-1.344 0,-0.768 -0.576,-1.344 -2.112,-1.344 -0.576,0 -4.608,-0.192 -5.952,-0.384 -5.376,-0.768 -11.136,-2.304 -20.352,-11.712 -9.792,-10.176 -21.312,-24.384 -35.328,-41.664 15.168,-12.288 20.352,-25.728 20.352,-36.288 0,-13.056 -7.872,-20.736 -11.52,-23.424 -9.024,-6.336 -20.736,-7.296 -31.488,-7.296 -5.376,0 -18.432,0.576 -20.16,0.576 -0.384,0 -12.096,-0.576 -20.352,-0.576 -1.728,0 -2.304,0.576 -2.304,1.344 0,0.768 0.768,1.152 2.112,1.152 1.536,0 3.456,0.192 4.608,0.384 5.952,1.152 7.296,4.032 7.68,9.216 0.384,5.184 0.384,9.792 0.384,35.136 z m 14.784,-67.392 c 0,-0.96 0.576,-1.536 1.152,-1.728 2.304,-0.576 6.336,-0.96 11.136,-0.96 17.088,0 28.224,11.52 28.224,32.448 0,12.288 -3.84,20.736 -9.6,24.384 -4.032,2.688 -8.832,2.88 -12.864,2.88 -6.912,0 -14.592,-1.152 -17.088,-2.496 -0.768,-0.384 -0.96,-1.344 -0.96,-2.304 z" />
      </g>
      <g
         id="flowRoot3600"
         style="font-style:normal;font-variant:normal;font-weight:normal;font-stretch:normal;font-size:40px;line-height:1.25;font-family:'Trajan Pro 3';-inkscape-font-specification:'Trajan Pro 3, ';letter-spacing:0px;word-spacing:0px;fill:#000000;fill-opacity:1;stroke:none"
         transform="matrix(10.595515,0,0,11.960077,-8765.3053,-6919.2272)"
         aria-label="R">
        <path
           inkscape:connector-curvature="0"
           id="path3682"
           d="m 904.13562,613.40867 c 0,3.84 0,7 -0.2,8.68 -0.16,1.16 -0.36,2.04 -1.16,2.2 -0.36,0.08 -0.84,0.16 -1.2,0.16 -0.23999,0 -0.32,0.12 -0.32,0.24 0,0.24 0.20001,0.32 0.64,0.32 1.20001,0 3.72001,-0.12 3.76,-0.12 0.20001,0 2.72001,0.12 4.92,0.12 0.44,0 0.64001,-0.12 0.64001,-0.32 0,-0.12 -0.08,-0.24 -0.32001,-0.24 -0.36,0 -1.24,-0.08 -1.79999,-0.16 -1.20001,-0.16 -1.44001,-1.04 -1.56001,-2.2 -0.19999,-1.68 -0.19999,-4.84 -0.19999,-8.68 v -0.96 c 0,-0.2 0.08,-0.32 0.28,-0.32 l 4.91999,0.08 c 0.24,0 0.36,0.08 0.52,0.24 0.80001,1.04 2.68001,3.72 4.36,5.92 2.28,3 3.68001,4.96 5.4,5.88 1.04001,0.56 2.04001,0.76 4.28001,0.76 h 2.83999 c 0.72,0 0.96,-0.08 0.96,-0.32 0,-0.12 -0.15999,-0.24 -0.36,-0.24 -0.24,0 -0.79999,0 -1.55999,-0.12 -1,-0.16 -2.72001,-0.6 -4.88,-2.88 -2.32001,-2.48 -5.04001,-6.04 -8.32001,-10.24 3.60001,-3.32 4.84001,-6.28 4.84001,-9.24 0,-2.76 -1.76,-4.72 -2.76,-5.44 -2.12,-1.52 -4.80001,-1.76 -7.32001,-1.76 -1.24,0 -4.28,0.12 -4.72,0.12 -0.19999,0 -2.71999,-0.12 -4.52,-0.12 -0.43999,0 -0.64,0.08 -0.64,0.32 0,0.16 0.16,0.24 0.32001,0.24 0.36,0 1.03999,0.04 1.36,0.12 1.31999,0.28 1.64,0.92 1.71999,2.28 0.08,1.28 0.08,2.4 0.08,8.64 z m 3.20001,-16.64 c 0,-0.24 0.12,-0.4 0.31999,-0.48 0.4,-0.12 1.48,-0.24 2.68001,-0.24 4.28,0 6.91999,3 6.91999,8 0,3.04 -1.03999,5.2 -2.44,6.16 -0.92,0.64 -2.04,0.76 -3,0.76 -1.76,0 -3.59999,-0.28 -4.19999,-0.64 -0.20001,-0.12 -0.28,-0.28 -0.28,-0.48 z" />
      </g>
    </g>
  </g>
</svg>
